<svg width="20" height="20" viewBox="0 0 20 20" version="1.1" xmlns="http://www.w3.org/2000/svg" xmlns:xlink="http://www.w3.org/1999/xlink">
<title>leapicons-navigation_add</title>
<desc>Created using Figma</desc>
<g id="Canvas" transform="translate(-13 -4403)">
<g id="leapicons-navigation_add">
<g id="add">
<g id="expanded">
<g id="&#60;Path&#62;">
<use xlink:href="#path0_fill" transform="translate(13 4403)" fill="#FFFFFF"/>
</g>
</g>
</g>
</g>
</g>
<defs>
<path id="path0_fill" d="M 10 20C 9.87371 20 9.75259 19.9498 9.66328 19.8605C 9.57398 19.7712 9.52381 19.6501 9.52381 19.5238L 9.52381 10.4762L 0.47619 10.4762C 0.349897 10.4762 0.228776 10.426 0.139473 10.3367C 0.05017 10.2474 0 10.1263 0 10C 0 9.87371 0.05017 9.75259 0.139473 9.66328C 0.228776 9.57398 0.349897 9.52381 0.47619 9.52381L 9.52381 9.52381L 9.52381 0.47619C 9.52381 0.349897 9.57398 0.228776 9.66328 0.139473C 9.75259 0.05017 9.87371 0 10 0C 10.1263 0 10.2474 0.05017 10.3367 0.139473C 10.426 0.228776 10.4762 0.349897 10.4762 0.47619L 10.4762 9.52381L 19.5238 9.52381C 19.6501 9.52381 19.7712 9.57398 19.8605 9.66328C 19.9498 9.75259 20 9.87371 20 10C 20 10.1263 19.9498 10.2474 19.8605 10.3367C 19.7712 10.426 19.6501 10.4762 19.5238 10.4762L 10.4762 10.4762L 10.4762 19.5238C 10.4762 19.6501 10.426 19.7712 10.3367 19.8605C 10.2474 19.9498 10.1263 20 10 20Z"/>
</defs>
</svg>
