<svg width="11" height="10" viewBox="0 0 11 10" version="1.1" xmlns="http://www.w3.org/2000/svg" xmlns:xlink="http://www.w3.org/1999/xlink">
<title>add</title>
<desc>Created using Figma</desc>
<g id="Canvas" transform="translate(4763 -11170)">
<g id="add">
<g id="expanded">
<g id="&#60;Path&#62;">
<use xlink:href="#path0_fill" transform="translate(-4762.47 11170)" fill="#03A9F4"/>
</g>
</g>
</g>
</g>
<defs>
<path id="path0_fill" d="M 4.89966 9.79932C 4.83778 9.79932 4.77843 9.77474 4.73468 9.73098C 4.69092 9.68722 4.66634 9.62788 4.66634 9.566L 4.66634 5.13298L 0.233317 5.13298C 0.171438 5.13298 0.112092 5.10839 0.068337 5.06464C 0.0245816 5.02088 0 4.96154 0 4.89966C 0 4.83778 0.0245816 4.77843 0.068337 4.73468C 0.112092 4.69092 0.171438 4.66634 0.233317 4.66634L 4.66634 4.66634L 4.66634 0.233317C 4.66634 0.171438 4.69092 0.112092 4.73468 0.068337C 4.77843 0.0245816 4.83778 0 4.89966 0C 4.96154 0 5.02088 0.0245816 5.06464 0.068337C 5.10839 0.112092 5.13298 0.171438 5.13298 0.233317L 5.13298 4.66634L 9.566 4.66634C 9.62788 4.66634 9.68722 4.69092 9.73098 4.73468C 9.77474 4.77843 9.79932 4.83778 9.79932 4.89966C 9.79932 4.96154 9.77474 5.02088 9.73098 5.06464C 9.68722 5.10839 9.62788 5.13298 9.566 5.13298L 5.13298 5.13298L 5.13298 9.566C 5.13298 9.62788 5.10839 9.68722 5.06464 9.73098C 5.02088 9.77474 4.96154 9.79932 4.89966 9.79932Z"/>
</defs>
</svg>
