<svg width="16" height="18" viewBox="0 0 16 18" version="1.1" xmlns="http://www.w3.org/2000/svg" xmlns:xlink="http://www.w3.org/1999/xlink">
<title>calendar</title>
<desc>Created using Figma</desc>
<g id="Canvas" transform="translate(5488 -9401)">
<g id="calendar">
<g id="Group">
<g id="Group">
<g id="Group">
<g id="Vector">
<use xlink:href="#path0_fill" transform="translate(-5488 9401.5)" fill="#646464"/>
</g>
<g id="Vector">
<use xlink:href="#path1_fill" transform="translate(-5485.66 9408.54)" fill="#646464"/>
</g>
<g id="Vector">
<use xlink:href="#path2_fill" transform="translate(-5482.62 9408.54)" fill="#646464"/>
</g>
<g id="Vector">
<use xlink:href="#path3_fill" transform="translate(-5479.55 9408.54)" fill="#646464"/>
</g>
<g id="Vector">
<use xlink:href="#path4_fill" transform="translate(-5476.5 9408.54)" fill="#646464"/>
</g>
<g id="Vector">
<use xlink:href="#path5_fill" transform="translate(-5485.66 9411.59)" fill="#646464"/>
</g>
<g id="Vector">
<use xlink:href="#path6_fill" transform="translate(-5482.62 9411.59)" fill="#646464"/>
</g>
<g id="Vector">
<use xlink:href="#path7_fill" transform="translate(-5479.55 9411.59)" fill="#646464"/>
</g>
<g id="Vector">
<use xlink:href="#path8_fill" transform="translate(-5476.5 9411.59)" fill="#646464"/>
</g>
<g id="Vector">
<use xlink:href="#path9_fill" transform="translate(-5485.66 9414.6)" fill="#646464"/>
</g>
<g id="Vector">
<use xlink:href="#path10_fill" transform="translate(-5482.62 9414.6)" fill="#646464"/>
</g>
<g id="Vector">
<use xlink:href="#path11_fill" transform="translate(-5479.55 9414.6)" fill="#646464"/>
</g>
<g id="Vector">
<use xlink:href="#path12_fill" transform="translate(-5476.5 9414.6)" fill="#646464"/>
</g>
</g>
</g>
</g>
</g>
</g>
<defs>
<path id="path0_fill" d="M 15.8692 3.06557C 15.7757 2.61967 15.5327 2.22951 15.215 1.93224C 14.7103 1.4306 14.0187 1.13333 13.271 1.13333L 12.1122 1.13333L 12.1122 0.353005C 12.1122 0.167213 11.9626 0 11.757 0C 11.5701 0 11.4019 0.148634 11.4019 0.353005L 11.4019 1.11475L 4.63551 1.11475L 4.63551 0.353005C 4.63551 0.167213 4.48598 0 4.28037 0C 4.09346 0 3.92523 0.148634 3.92523 0.353005L 3.92523 1.11475L 2.76636 1.11475C 2.18692 1.11475 1.66355 1.28197 1.21495 1.57923C 1.06542 1.67213 0.934579 1.78361 0.803738 1.91366C 0.299065 2.4153 8.91284e-09 3.10273 8.91284e-09 3.8459L 8.91284e-09 5.70383L 8.91284e-09 14.2689C 8.91284e-09 15.0306 0.317757 15.718 0.803738 16.2011C 1.30841 16.7027 2 17 2.74766 17L 13.2523 17C 14.0187 17 14.7103 16.6842 15.1963 16.2011C 15.7009 15.6995 16 15.012 16 14.2689L 16 5.74098L 16 3.88306C 16 3.60437 15.9626 3.32568 15.8692 3.06557ZM 15.3271 14.2874C 15.3271 14.8634 15.1028 15.3836 14.729 15.7552C 14.3551 16.1268 13.8318 16.3497 13.271 16.3497L 2.76636 16.3497C 2.20561 16.3497 1.68224 16.1268 1.30841 15.7552C 0.934579 15.3836 0.71028 14.8634 0.71028 14.306L 0.71028 6.07541L 15.3271 6.07541L 15.3271 14.2874ZM 15.3458 5.38798L 0.71028 5.38798L 0.71028 3.86448C 0.71028 3.3071 0.934579 2.78689 1.30841 2.4153C 1.68224 2.04372 2.20561 1.82077 2.76636 1.82077L 3.92523 1.82077L 3.92523 2.58251C 3.92523 2.76831 4.07477 2.93552 4.28037 2.93552C 4.46729 2.93552 4.63551 2.78689 4.63551 2.58251L 4.63551 1.82077L 11.4206 1.82077L 11.4206 2.58251C 11.4206 2.76831 11.5701 2.93552 11.7757 2.93552C 11.9626 2.93552 12.1308 2.78689 12.1308 2.58251L 12.1308 1.82077L 13.2897 1.82077C 13.8505 1.82077 14.3738 2.04372 14.7477 2.4153C 15.028 2.69399 15.2336 3.04699 15.3084 3.45574C 15.3271 3.58579 15.3458 3.73443 15.3458 3.86448L 15.3458 5.38798Z"/>
<path id="path1_fill" d="M 1.1028 2.19235C 1.40187 2.19235 1.68224 2.0623 1.88785 1.8765C 2.09346 1.67213 2.20561 1.39344 2.20561 1.09617C 2.20561 0.798907 2.07477 0.520218 1.88785 0.315847C 1.68224 0.130054 1.40187 2.83497e-07 1.1028 2.83497e-07C 0.803738 2.83497e-07 0.523364 0.130054 0.317757 0.315847C 0.112149 0.520218 -3.56514e-08 0.798907 -3.56514e-08 1.09617C -3.56514e-08 1.39344 0.130841 1.67213 0.317757 1.8765C 0.523364 2.08087 0.803738 2.19235 1.1028 2.19235ZM 0.785047 0.798907C 0.859813 0.72459 0.953271 0.687431 1.08411 0.687431C 1.19626 0.687431 1.30841 0.72459 1.38318 0.798907C 1.45794 0.873224 1.49533 0.96612 1.49533 1.09617C 1.51402 1.22623 1.45794 1.31913 1.38318 1.39344C 1.30841 1.46776 1.21495 1.50492 1.08411 1.50492C 0.971963 1.50492 0.859813 1.46776 0.785047 1.39344C 0.71028 1.31913 0.672897 1.22623 0.672897 1.09617C 0.672897 0.984699 0.71028 0.873224 0.785047 0.798907Z"/>
<path id="path2_fill" d="M 1.1028 2.19235C 1.40187 2.19235 1.68224 2.0623 1.88785 1.8765C 2.09346 1.67213 2.20561 1.39344 2.20561 1.09617C 2.20561 0.798907 2.07477 0.520218 1.88785 0.315847C 1.70093 0.111475 1.42056 2.83497e-07 1.1028 2.83497e-07C 0.803739 2.83497e-07 0.523365 0.130054 0.317757 0.315847C 0.11215 0.520218 6.64059e-16 0.798907 6.64059e-16 1.09617C 6.64059e-16 1.39344 0.130841 1.67213 0.317757 1.8765C 0.523365 2.08087 0.803739 2.19235 1.1028 2.19235ZM 0.803738 0.798907C 0.878505 0.72459 0.971963 0.687431 1.1028 0.687431C 1.21495 0.687431 1.3271 0.72459 1.40187 0.798907C 1.47664 0.873224 1.51402 0.96612 1.51402 1.09617C 1.51402 1.22623 1.47664 1.31913 1.40187 1.39344C 1.3271 1.46776 1.23365 1.50492 1.1028 1.50492C 0.990655 1.50492 0.878505 1.46776 0.803738 1.39344C 0.728972 1.31913 0.691589 1.22623 0.691589 1.09617C 0.691589 0.984699 0.728972 0.873224 0.803738 0.798907Z"/>
<path id="path3_fill" d="M 1.1028 2.19235C 1.40187 2.19235 1.68224 2.0623 1.88785 1.8765C 2.09346 1.67213 2.20561 1.39344 2.20561 1.09617C 2.20561 0.798907 2.07477 0.520218 1.88785 0.315847C 1.70093 0.111475 1.40187 2.83497e-07 1.1028 2.83497e-07C 0.803738 2.83497e-07 0.523364 0.130054 0.317757 0.315847C 0.112149 0.501639 2.85211e-07 0.798907 2.85211e-07 1.09617C 2.85211e-07 1.39344 0.130841 1.67213 0.317757 1.8765C 0.523364 2.08087 0.803738 2.19235 1.1028 2.19235ZM 0.803738 0.817486C 0.878505 0.743169 0.971963 0.706011 1.1028 0.706011C 1.21495 0.706011 1.3271 0.743169 1.40187 0.817486C 1.47664 0.891803 1.51402 0.9847 1.51402 1.11475C 1.51402 1.22623 1.45794 1.31913 1.38318 1.39344C 1.30841 1.46776 1.21495 1.50492 1.08411 1.50492C 0.971963 1.50492 0.859813 1.46776 0.785046 1.39344C 0.728972 1.31913 0.691589 1.22623 0.691589 1.11475C 0.691589 1.00328 0.728972 0.891803 0.803738 0.817486Z"/>
<path id="path4_fill" d="M 1.1028 2.19235C 1.40187 2.19235 1.68224 2.0623 1.88785 1.8765C 2.09346 1.67213 2.20561 1.39344 2.20561 1.09617C 2.20561 0.798907 2.07477 0.520218 1.88785 0.315847C 1.70094 0.130054 1.42056 2.83497e-07 1.1028 2.83497e-07C 0.803738 2.83497e-07 0.523365 0.130054 0.317757 0.315847C 0.11215 0.520218 -5.70422e-07 0.798907 -5.70422e-07 1.09617C -5.70422e-07 1.39344 0.130841 1.67213 0.317757 1.8765C 0.523365 2.08087 0.803738 2.19235 1.1028 2.19235ZM 0.803738 0.798907C 0.878505 0.72459 0.971962 0.687431 1.1028 0.687431C 1.21495 0.687431 1.3271 0.72459 1.40187 0.798907C 1.47664 0.873224 1.51402 0.96612 1.51402 1.09617C 1.51402 1.22623 1.47664 1.31913 1.40187 1.39344C 1.3271 1.46776 1.23364 1.50492 1.1028 1.50492C 0.990654 1.50492 0.878505 1.46776 0.803738 1.39344C 0.728972 1.31913 0.691589 1.22623 0.691589 1.09617C 0.691589 0.984699 0.728972 0.873224 0.803738 0.798907Z"/>
<path id="path5_fill" d="M 1.1028 2.19235C 1.40187 2.19235 1.68224 2.0623 1.88785 1.8765C 2.09346 1.67213 2.20561 1.39344 2.20561 1.09618C 2.20561 0.798907 2.07477 0.520219 1.88785 0.315847C 1.68224 0.111475 1.40187 -1.41748e-07 1.1028 -1.41748e-07C 0.803738 -1.41748e-07 0.523364 0.130055 0.317757 0.315847C 0.112149 0.520219 -3.56514e-08 0.798907 -3.56514e-08 1.09618C -3.56514e-08 1.39344 0.130841 1.67213 0.317757 1.8765C 0.523364 2.08087 0.803738 2.19235 1.1028 2.19235ZM 0.785047 0.798907C 0.859813 0.72459 0.953271 0.687432 1.08411 0.687432C 1.19626 0.687432 1.30841 0.72459 1.38318 0.798907C 1.45794 0.873224 1.49533 0.96612 1.49533 1.09618C 1.51402 1.20765 1.45794 1.31913 1.38318 1.39344C 1.30841 1.46776 1.21495 1.50492 1.08411 1.50492C 0.971963 1.50492 0.859813 1.46776 0.785047 1.39344C 0.71028 1.31913 0.672897 1.22623 0.672897 1.09618C 0.672897 0.9847 0.71028 0.873224 0.785047 0.798907Z"/>
<path id="path6_fill" d="M 1.1028 2.19235C 1.40187 2.19235 1.68224 2.0623 1.88785 1.8765C 2.09346 1.69071 2.20561 1.39344 2.20561 1.09618C 2.20561 0.798907 2.07477 0.520219 1.88785 0.315847C 1.70093 0.111475 1.42056 -1.41748e-07 1.1028 -1.41748e-07C 0.803739 -1.41748e-07 0.523365 0.130055 0.317757 0.315847C 0.11215 0.520219 6.64059e-16 0.798907 6.64059e-16 1.09618C 6.64059e-16 1.39344 0.130841 1.67213 0.317757 1.8765C 0.523365 2.08087 0.803739 2.19235 1.1028 2.19235ZM 0.803738 0.798907C 0.878505 0.72459 0.971963 0.687432 1.1028 0.687432C 1.21495 0.687432 1.3271 0.72459 1.40187 0.798907C 1.47664 0.873224 1.51402 0.96612 1.51402 1.09618C 1.51402 1.20765 1.47664 1.31913 1.40187 1.39344C 1.3271 1.46776 1.23365 1.50492 1.1028 1.50492C 0.990655 1.50492 0.878505 1.46776 0.803738 1.39344C 0.728972 1.31913 0.691589 1.22623 0.691589 1.09618C 0.691589 0.9847 0.728972 0.873224 0.803738 0.798907Z"/>
<path id="path7_fill" d="M 1.1028 2.19235C 1.40187 2.19235 1.68224 2.0623 1.88785 1.8765C 2.09346 1.69071 2.20561 1.39344 2.20561 1.09618C 2.20561 0.798907 2.07477 0.520219 1.88785 0.315847C 1.70093 0.111475 1.40187 -1.41748e-07 1.1028 -1.41748e-07C 0.803738 -1.41748e-07 0.523364 0.130055 0.317757 0.315847C 0.112149 0.501639 2.85211e-07 0.798907 2.85211e-07 1.09618C 2.85211e-07 1.39344 0.130841 1.67213 0.317757 1.8765C 0.504673 2.08087 0.803738 2.19235 1.1028 2.19235ZM 0.785046 0.798907C 0.859813 0.72459 0.953271 0.687432 1.08411 0.687432C 1.19626 0.687432 1.30841 0.72459 1.38318 0.798907C 1.45794 0.873224 1.49533 0.96612 1.49533 1.09618C 1.51402 1.20765 1.45794 1.31913 1.38318 1.39344C 1.30841 1.46776 1.21495 1.50492 1.08411 1.50492C 0.971963 1.50492 0.859813 1.46776 0.785046 1.39344C 0.71028 1.31913 0.672897 1.22623 0.672897 1.09618C 0.672897 0.9847 0.71028 0.873224 0.785046 0.798907Z"/>
<path id="path8_fill" d="M 1.1028 2.19235C 1.40187 2.19235 1.68224 2.0623 1.88785 1.8765C 2.09346 1.67213 2.20561 1.39344 2.20561 1.09618C 2.20561 0.798907 2.07477 0.520219 1.88785 0.315847C 1.70094 0.111475 1.42056 -1.41748e-07 1.1028 -1.41748e-07C 0.803738 -1.41748e-07 0.523365 0.130055 0.317757 0.315847C 0.11215 0.520219 -5.70422e-07 0.798907 -5.70422e-07 1.09618C -5.70422e-07 1.39344 0.130841 1.67213 0.317757 1.8765C 0.523365 2.08087 0.803738 2.19235 1.1028 2.19235ZM 0.803738 0.798907C 0.878505 0.72459 0.971962 0.687432 1.1028 0.687432C 1.21495 0.687432 1.3271 0.72459 1.40187 0.798907C 1.47664 0.873224 1.51402 0.96612 1.51402 1.09618C 1.51402 1.20765 1.47664 1.31913 1.40187 1.39344C 1.3271 1.46776 1.23364 1.50492 1.1028 1.50492C 0.990654 1.50492 0.878505 1.46776 0.803738 1.39344C 0.728972 1.31913 0.691589 1.22623 0.691589 1.09618C 0.691589 0.9847 0.728972 0.873224 0.803738 0.798907Z"/>
<path id="path9_fill" d="M 1.1028 2.19235C 1.40187 2.19235 1.68224 2.06229 1.88785 1.8765C 2.09346 1.67213 2.20561 1.39344 2.20561 1.09618C 2.20561 0.798907 2.07477 0.520218 1.88785 0.315846C 1.68224 0.111475 1.40187 2.64027e-15 1.1028 2.64027e-15C 0.803738 2.64027e-15 0.523364 0.130054 0.317757 0.315846C 0.112149 0.520218 -3.56514e-08 0.798907 -3.56514e-08 1.09618C -3.56514e-08 1.39344 0.130841 1.67213 0.317757 1.8765C 0.523364 2.08087 0.803738 2.19235 1.1028 2.19235ZM 0.785047 0.798908C 0.859813 0.724591 0.953271 0.687431 1.08411 0.687431C 1.19626 0.687431 1.30841 0.724591 1.38318 0.798908C 1.45794 0.873225 1.49533 0.966121 1.49533 1.09618C 1.51402 1.20765 1.45794 1.31913 1.38318 1.39344C 1.30841 1.46776 1.21495 1.50492 1.08411 1.50492C 0.971963 1.50492 0.859813 1.46776 0.785047 1.39344C 0.71028 1.31913 0.672897 1.22623 0.672897 1.09618C 0.672897 0.9847 0.71028 0.873225 0.785047 0.798908Z"/>
<path id="path10_fill" d="M 1.1028 2.19235C 1.40187 2.19235 1.68224 2.06229 1.88785 1.8765C 2.09346 1.69071 2.20561 1.39344 2.20561 1.09618C 2.20561 0.798907 2.07477 0.520218 1.88785 0.315846C 1.70093 0.111475 1.42056 2.64027e-15 1.1028 2.64027e-15C 0.803739 2.64027e-15 0.523365 0.130054 0.317757 0.315846C 0.11215 0.520218 6.64059e-16 0.798907 6.64059e-16 1.09618C 6.64059e-16 1.39344 0.130841 1.67213 0.317757 1.8765C 0.523365 2.08087 0.803739 2.19235 1.1028 2.19235ZM 0.803738 0.798908C 0.878505 0.724591 0.971963 0.687431 1.1028 0.687431C 1.21495 0.687431 1.3271 0.724591 1.40187 0.798908C 1.47664 0.873225 1.51402 0.966121 1.51402 1.09618C 1.51402 1.20765 1.47664 1.31913 1.40187 1.39344C 1.3271 1.46776 1.23365 1.50492 1.1028 1.50492C 0.990655 1.50492 0.878505 1.46776 0.803738 1.39344C 0.728972 1.31913 0.691589 1.22623 0.691589 1.09618C 0.691589 0.9847 0.728972 0.873225 0.803738 0.798908Z"/>
<path id="path11_fill" d="M 1.1028 2.19235C 1.40187 2.19235 1.68224 2.06229 1.88785 1.8765C 2.09346 1.69071 2.20561 1.39344 2.20561 1.09618C 2.20561 0.798907 2.07477 0.520218 1.88785 0.315846C 1.68224 0.111475 1.40187 2.64027e-15 1.1028 2.64027e-15C 0.803738 2.64027e-15 0.523364 0.130054 0.317757 0.315846C 0.112149 0.520218 2.85211e-07 0.798907 2.85211e-07 1.09618C 2.85211e-07 1.39344 0.130841 1.67213 0.317757 1.8765C 0.504673 2.08087 0.803738 2.19235 1.1028 2.19235ZM 0.785046 0.798908C 0.859813 0.724591 0.953271 0.687431 1.08411 0.687431C 1.19626 0.687431 1.30841 0.724591 1.38318 0.798908C 1.45794 0.873225 1.49533 0.966121 1.49533 1.09618C 1.51402 1.20765 1.45794 1.31913 1.38318 1.39344C 1.30841 1.46776 1.21495 1.50492 1.08411 1.50492C 0.971963 1.50492 0.859813 1.46776 0.785046 1.39344C 0.71028 1.31913 0.672897 1.22623 0.672897 1.09618C 0.672897 0.9847 0.71028 0.873225 0.785046 0.798908Z"/>
<path id="path12_fill" d="M 1.1028 2.19235C 1.40187 2.19235 1.68224 2.06229 1.88785 1.8765C 2.09346 1.67213 2.20561 1.39344 2.20561 1.09618C 2.20561 0.798907 2.07477 0.520218 1.88785 0.315846C 1.70094 0.111475 1.42056 2.64027e-15 1.1028 2.64027e-15C 0.803738 2.64027e-15 0.523365 0.130054 0.317757 0.315846C 0.11215 0.520218 -5.70422e-07 0.798907 -5.70422e-07 1.09618C -5.70422e-07 1.39344 0.130841 1.67213 0.317757 1.8765C 0.523365 2.08087 0.803738 2.19235 1.1028 2.19235ZM 0.803738 0.798908C 0.878505 0.724591 0.971962 0.687431 1.1028 0.687431C 1.21495 0.687431 1.3271 0.724591 1.40187 0.798908C 1.47664 0.873225 1.51402 0.966121 1.51402 1.09618C 1.51402 1.20765 1.47664 1.31913 1.40187 1.39344C 1.3271 1.46776 1.23364 1.50492 1.1028 1.50492C 0.990654 1.50492 0.878505 1.46776 0.803738 1.39344C 0.728972 1.31913 0.691589 1.22623 0.691589 1.09618C 0.691589 0.9847 0.728972 0.873225 0.803738 0.798908Z"/>
</defs>
</svg>
