<svg width="20" height="22" viewBox="0 0 20 22" version="1.1" xmlns="http://www.w3.org/2000/svg" xmlns:xlink="http://www.w3.org/1999/xlink">
<title>Calendar Icon</title>
<desc>Created using Figma</desc>
<g id="Canvas" transform="translate(-13324 -7946)">
<g id="Calendar Icon">
<g id="Group">
<g id="Vector">
<use xlink:href="#path0_fill" transform="matrix(-1 0 0 1 13343.6 7946.68)" fill="#828282"/>
</g>
</g>
</g>
</g>
<defs>
<path id="path0_fill" d="M 18.5663 3.44539C 18.2773 3.14851 17.9345 3.00005 17.5387 3.00005L 16.0773 3.00005L 16.0773 1.87501C 16.0773 1.35949 15.8983 0.918051 15.5405 0.550863C 15.1826 0.183676 14.7527 0 14.2501 0L 13.5195 0C 13.017 0 12.587 0.183676 12.2292 0.550904C 11.8713 0.918051 11.6924 1.35953 11.6924 1.87505L 11.6924 3.00009L 7.30798 3.00009L 7.30798 1.87505C 7.30798 1.35953 7.12901 0.918092 6.77119 0.550904C 6.41345 0.183676 5.98337 0 5.48085 0L 4.75014 0C 4.24775 0 3.81762 0.183676 3.4598 0.550904C 3.10206 0.918051 2.92306 1.35953 2.92306 1.87505L 2.92306 3.00009L 1.46163 3.00009C 1.0657 3.00009 0.723195 3.14855 0.433925 3.44543C 0.144655 3.74227 -3.7225e-08 4.09394 -3.7225e-08 4.50016L -3.7225e-08 19.5001C -3.7225e-08 19.9061 0.144655 20.2577 0.433925 20.5547C 0.723155 20.8515 1.06566 21 1.46163 21L 17.5384 21C 17.9342 21 18.2771 20.8515 18.566 20.5547C 18.8553 20.2578 19 19.906 19 19.5001L 19 4.50012C 19 4.09378 18.8554 3.74227 18.5663 3.44539ZM 13.1542 1.87518C 13.1542 1.76571 13.1881 1.67578 13.2566 1.60563C 13.325 1.53541 13.4126 1.50023 13.5193 1.50023L 14.2499 1.50023C 14.3567 1.50023 14.444 1.53528 14.5127 1.60563C 14.5811 1.6759 14.6153 1.76583 14.6153 1.87518L 14.6153 5.25005C 14.6153 5.35948 14.5811 5.44924 14.5127 5.51959C 14.4439 5.58974 14.3567 5.625 14.2499 5.625L 13.5193 5.625C 13.4126 5.625 13.325 5.5899 13.2566 5.51959C 13.1881 5.4492 13.1542 5.35948 13.1542 5.25005L 13.1542 1.87518ZM 4.3848 1.87518C 4.3848 1.76571 4.419 1.67578 4.48751 1.60563C 4.55605 1.53541 4.64352 1.50023 4.75014 1.50023L 5.48085 1.50023C 5.58752 1.50023 5.67514 1.53528 5.74349 1.60563C 5.81192 1.6759 5.84627 1.76583 5.84627 1.87518L 5.84627 5.25005C 5.84627 5.35948 5.81208 5.44937 5.74349 5.51959C 5.67498 5.58974 5.58752 5.625 5.48085 5.625L 4.75014 5.625C 4.64352 5.625 4.55593 5.5899 4.48751 5.51959C 4.41916 5.4492 4.3848 5.35948 4.3848 5.25005L 4.3848 1.87518ZM 17.5384 19.4999L 1.46163 19.4999L 1.46163 7.50005L 17.5384 7.50005L 17.5384 19.4999Z"/>
</defs>
</svg>
