<svg xmlns="http://www.w3.org/2000/svg" width="18" height="19" viewBox="0 0 18 19">
  <path fill-rule="evenodd" d="M2.5390625,3.3671875 C4.25782109,1.64842891 6.32811289,0.7890625 8.75,0.7890625 C11.1718871,0.7890625 13.2356686,1.64191855 14.9414062,3.34765625 C16.6471439,5.05339395 17.5,7.11717539 17.5,9.5390625 C17.5,11.9609496 16.6471439,14.0247311 14.9414062,15.7304688 C13.2356686,17.4362064 11.1718871,18.2890625 8.75,18.2890625 C6.32811289,18.2890625 4.26433145,17.4362064 2.55859375,15.7304688 C0.852856055,14.0247311 0,11.9609496 0,9.5390625 C0,7.11717539 0.846345703,5.0599043 2.5390625,3.3671875 Z M12.96875,12.46875 L10.0390625,9.5390625 L13.0078125,6.609375 C13.1640633,6.45312422 13.1640633,6.29687578 13.0078125,6.140625 L12.1484375,5.3203125 C12.0703121,5.24218711 11.9921879,5.203125 11.9140625,5.203125 C11.8619789,5.203125 11.7968754,5.24218711 11.71875,5.3203125 L8.75,8.2109375 L5.78125,5.3203125 C5.70312461,5.24218711 5.63802109,5.203125 5.5859375,5.203125 C5.50781211,5.203125 5.42968789,5.24218711 5.3515625,5.3203125 L4.53125,6.140625 C4.37499922,6.29687578 4.37499922,6.45312422 4.53125,6.609375 L7.5,9.5390625 L4.53125,12.5078125 C4.47916641,12.5338543 4.453125,12.5989578 4.453125,12.703125 C4.453125,12.8072922 4.47916641,12.8854164 4.53125,12.9375 L5.3515625,13.796875 C5.40364609,13.8489586 5.48177031,13.875 5.5859375,13.875 C5.69010469,13.875 5.76822891,13.8489586 5.8203125,13.796875 L8.75,10.828125 L11.71875,13.7578125 C11.7968754,13.8359379 11.8619789,13.875 11.9140625,13.875 C11.9921879,13.875 12.0703121,13.8359379 12.1484375,13.7578125 L12.96875,12.9375 C13.0468754,12.8854164 13.0859375,12.8072922 13.0859375,12.703125 C13.0859375,12.6249996 13.0468754,12.5468754 12.96875,12.46875 Z"/>
</svg>
