<svg width="18" height="17" viewBox="0 0 18 17" version="1.1" xmlns="http://www.w3.org/2000/svg" xmlns:xlink="http://www.w3.org/1999/xlink">
<title>leapicons-navigation_cross</title>
<desc>Created using Figma</desc>
<g id="Canvas" transform="translate(317 -6878)">
<g id="leapicons-navigation_cross">
<g id="cross">
<g id="expanded">
<g id="&#60;Compound Path&#62;">
<use xlink:href="#path0_fill" transform="translate(-315.584 6878.5)" fill="#FE8A80"/>
<use xlink:href="#path1_stroke" transform="translate(-315.584 6878.5)" fill="#FE8A80"/>
</g>
</g>
</g>
</g>
</g>
<defs>
<path id="path0_fill" d="M 15.8529 15.2591C 15.8969 15.2969 15.9327 15.3433 15.958 15.3956C 15.9832 15.4478 15.9974 15.5047 15.9997 15.5627C 16.0019 15.6207 15.9922 15.6785 15.971 15.7325C 15.9498 15.7866 15.9177 15.8356 15.8767 15.8767C 15.8357 15.9177 15.7866 15.9498 15.7326 15.971C 15.6786 15.9922 15.6208 16.0019 15.5628 15.9997C 15.5048 15.9974 15.448 15.9832 15.3957 15.958C 15.3435 15.9327 15.2971 15.8969 15.2593 15.8528L 7.97704 8.57282L 0.698956 15.857C 0.618429 15.926 0.514845 15.9621 0.408904 15.958C 0.302963 15.9539 0.202468 15.9099 0.127501 15.835C 0.0525334 15.76 0.00861528 15.6594 0.00452324 15.5535C 0.000431196 15.4475 0.0364666 15.3439 0.105428 15.2634L 7.38351 7.97914L 0.101218 0.69914C 0.0322571 0.618592 -0.00377792 0.514981 0.000314123 0.409012C 0.00440616 0.303043 0.0483238 0.202522 0.123291 0.127534C 0.198259 0.0525472 0.298754 0.00861754 0.404695 0.00452443C 0.510636 0.000431309 0.61422 0.0364762 0.694746 0.105456L 7.97704 7.38546L 15.2551 0.101245C 15.3357 0.0322655 15.4392 -0.00377891 15.5452 0.000314205C 15.6511 0.00440732 15.7516 0.0483366 15.8266 0.123324C 15.9015 0.198311 15.9455 0.298833 15.9496 0.404801C 15.9537 0.51077 15.9176 0.614381 15.8487 0.694929L 8.57057 7.97914L 15.8529 15.2591Z"/>
<path id="path1_stroke" d="M 15.8529 15.2591L 15.4994 15.6128L 15.513 15.6264L 15.5276 15.6389L 15.8529 15.2591ZM 15.9997 15.5627L 16.4993 15.5434L 15.9997 15.5627ZM 15.2593 15.8528L 15.6391 15.5276L 15.6265 15.5129L 15.6128 15.4992L 15.2593 15.8528ZM 7.97704 8.57282L 8.33054 8.21921L 7.97684 7.86562L 7.62334 8.21942L 7.97704 8.57282ZM 0.698956 15.857L 1.02423 16.2368L 1.03896 16.2242L 1.05266 16.2104L 0.698956 15.857ZM 0.105428 15.2634L -0.248274 14.9099L -0.261873 14.9236L -0.274386 14.9382L 0.105428 15.2634ZM 7.38351 7.97914L 7.73721 8.33254L 8.09053 7.97894L 7.73701 7.62553L 7.38351 7.97914ZM 0.101218 0.69914L -0.278596 1.02432L -0.265989 1.03904L -0.252279 1.05275L 0.101218 0.69914ZM 0.694746 0.105456L 1.04824 -0.248153L 1.03464 -0.261757L 1.02002 -0.274274L 0.694746 0.105456ZM 7.97704 7.38546L 7.62354 7.73906L 7.97724 8.09266L 8.33074 7.73886L 7.97704 7.38546ZM 15.2551 0.101245L 14.9298 -0.278484L 14.9151 -0.265873L 14.9014 -0.25216L 15.2551 0.101245ZM 15.8487 0.694929L 16.2024 1.04833L 16.216 1.03472L 16.2285 1.02011L 15.8487 0.694929ZM 8.57057 7.97914L 8.21687 7.62573L 7.86355 7.97934L 8.21707 8.33275L 8.57057 7.97914ZM 15.5276 15.6389C 15.5193 15.6318 15.5126 15.6231 15.5079 15.6133L 16.4081 15.1779C 16.3581 15.0805 16.2595 14.9526 16.1781 14.8794L 15.5276 15.6389ZM 15.5079 15.6133C 15.5031 15.6035 15.5005 15.5928 15.5001 15.582L 16.4993 15.5434C 16.4924 15.4342 16.4534 15.2775 16.4081 15.1779L 15.5079 15.6133ZM 15.5001 15.582C 15.4996 15.5711 15.5015 15.5603 15.5054 15.5502L 16.4366 15.9149C 16.474 15.812 16.5009 15.6529 16.4993 15.5434L 15.5001 15.582ZM 15.5054 15.5502C 15.5094 15.5401 15.5154 15.5309 15.5231 15.5232L 16.2303 16.2302C 16.3058 16.1509 16.3942 16.0158 16.4366 15.9149L 15.5054 15.5502ZM 15.5231 15.5232C 15.5308 15.5155 15.54 15.5094 15.5502 15.5055L 15.915 16.4365C 16.016 16.3941 16.1511 16.3057 16.2303 16.2302L 15.5231 15.5232ZM 15.5502 15.5055C 15.5603 15.5015 15.5712 15.4996 15.5821 15.5001L 15.5435 16.4993C 15.653 16.5009 15.8122 16.474 15.915 16.4365L 15.5502 15.5055ZM 15.5821 15.5001C 15.593 15.5005 15.6037 15.5032 15.6135 15.5079L 15.1779 16.408C 15.2776 16.4533 15.4343 16.4924 15.5435 16.4993L 15.5821 15.5001ZM 15.6135 15.5079C 15.6233 15.5127 15.6321 15.5194 15.6391 15.5276L 14.8795 16.178C 14.9527 16.2594 15.0806 16.358 15.1779 16.408L 15.6135 15.5079ZM 15.6128 15.4992L 8.33054 8.21921L 7.62354 8.92643L 14.9058 16.2064L 15.6128 15.4992ZM 7.62334 8.21942L 0.345254 15.5036L 1.05266 16.2104L 8.33074 8.92623L 7.62334 8.21942ZM 0.373678 15.4773C 0.388798 15.4644 0.408271 15.4576 0.428208 15.4583L 0.389601 16.4576C 0.588639 16.4566 0.86756 16.3595 1.02423 16.2368L 0.373678 15.4773ZM 0.428208 15.4583C 0.448145 15.4591 0.467031 15.4674 0.481101 15.4814L -0.226099 16.1885C -0.079364 16.3229 0.191235 16.4412 0.389601 16.4576L 0.428208 15.4583ZM 0.481101 15.4814C 0.495167 15.4955 0.503385 15.5144 0.504151 15.5342L -0.495104 15.5728C -0.478754 15.7711 -0.360533 16.0417 -0.226099 16.1885L 0.481101 15.4814ZM 0.504151 15.5342C 0.504917 15.554 0.498175 15.5734 0.485242 15.5885L -0.274386 14.9382C -0.397099 15.0949 -0.494099 15.3738 -0.495104 15.5728L 0.504151 15.5342ZM 0.45913 15.6168L 7.73721 8.33254L 7.02981 7.62573L -0.248274 14.9099L 0.45913 15.6168ZM 7.73701 7.62553L 0.454716 0.345531L -0.252279 1.05275L 7.03001 8.33275L 7.73701 7.62553ZM 0.481032 0.373961C 0.493967 0.389068 0.500707 0.408477 0.499942 0.428305L -0.499314 0.389719C -0.498308 0.588738 -0.401309 0.867631 -0.278596 1.02432L 0.481032 0.373961ZM 0.499942 0.428305C 0.499176 0.448135 0.490958 0.466971 0.476891 0.481041L -0.230309 -0.225973C -0.364743 -0.0792158 -0.482963 0.191368 -0.499314 0.389719L 0.499942 0.428305ZM 0.476891 0.481041C 0.462822 0.495114 0.443936 0.503381 0.423998 0.504152L 0.385391 -0.495103C 0.187026 -0.478739 -0.0835735 -0.360455 -0.230309 -0.225973L 0.476891 0.481041ZM 0.423998 0.504152C 0.404061 0.504922 0.384588 0.498137 0.369469 0.485185L 1.02002 -0.274274C 0.863351 -0.397037 0.584429 -0.494093 0.385391 -0.495103L 0.423998 0.504152ZM 0.341249 0.459065L 7.62354 7.73906L 8.33054 7.03185L 1.04824 -0.248153L 0.341249 0.459065ZM 8.33074 7.73886L 15.6088 0.45465L 14.9014 -0.25216L 7.62334 7.03205L 8.33074 7.73886ZM 15.5804 0.480975C 15.5653 0.493926 15.5458 0.500712 15.5259 0.499941L 15.5645 -0.499313C 15.3654 -0.498304 15.0865 -0.401248 14.9298 -0.278484L 15.5804 0.480975ZM 15.5259 0.499941C 15.5059 0.499171 15.4871 0.490905 15.473 0.476831L 16.1802 -0.230183C 16.0334 -0.364666 15.7628 -0.48295 15.5645 -0.499313L 15.5259 0.499941ZM 15.473 0.476831C 15.4589 0.462761 15.4507 0.443926 15.4499 0.424095L 16.4492 0.385508C 16.4328 0.187156 16.3146 -0.0834271 16.1802 -0.230183L 15.473 0.476831ZM 15.4499 0.424095C 15.4492 0.404265 15.4559 0.384857 15.4688 0.36975L 16.2285 1.02011C 16.3512 0.863421 16.4482 0.584528 16.4492 0.385508L 15.4499 0.424095ZM 15.495 0.341525L 8.21687 7.62573L 8.92427 8.33254L 16.2024 1.04833L 15.495 0.341525ZM 8.21707 8.33275L 15.4994 15.6128L 16.2064 14.9055L 8.92407 7.62553L 8.21707 8.33275Z"/>
</defs>
</svg>
