<svg width="12" height="13" viewBox="0 0 12 13" version="1.1" xmlns="http://www.w3.org/2000/svg" xmlns:xlink="http://www.w3.org/1999/xlink">
<title>leapicons-navigation_cross</title>
<desc>Created using Figma</desc>
<g id="Canvas" transform="translate(5295 -8268)">
<g id="leapicons-navigation_cross">
<g id="cross">
<g id="expanded">
<g id="&#60;Compound Path&#62;">
<use xlink:href="#path0_fill" transform="translate(-5295 8268.5)" fill="#03A9F4"/>
</g>
</g>
</g>
</g>
</g>
<defs>
<path id="path0_fill" d="M 11.8896 11.4444C 11.9227 11.4727 11.9495 11.5075 11.9685 11.5467C 11.9874 11.5859 11.9981 11.6285 11.9998 11.672C 12.0014 11.7155 11.9941 11.7589 11.9782 11.7994C 11.9624 11.8399 11.9383 11.8767 11.9075 11.9075C 11.8768 11.9383 11.84 11.9624 11.7995 11.9782C 11.7589 11.9941 11.7156 12.0014 11.6721 11.9998C 11.6286 11.9981 11.586 11.9874 11.5468 11.9685C 11.5076 11.9495 11.4728 11.9227 11.4445 11.8896L 5.98278 6.42962L 0.524217 11.8928C 0.463822 11.9445 0.386134 11.9715 0.306678 11.9685C 0.227223 11.9654 0.151851 11.9325 0.0956256 11.8762C 0.0394 11.82 0.00646146 11.7446 0.00339243 11.6651C 0.000323397 11.5856 0.0273499 11.5079 0.079071 11.4475L 5.53763 5.98435L 0.0759138 0.524355C 0.0241928 0.463944 -0.00283344 0.386236 0.000235592 0.306759C 0.00330462 0.227282 0.0362429 0.151891 0.0924685 0.0956508C 0.148694 0.0394104 0.224065 0.00646316 0.303521 0.00339332C 0.382977 0.000323482 0.460665 0.0273571 0.52106 0.0790918L 5.98278 5.53909L 11.4413 0.0759338C 11.5017 0.0241992 11.5794 -0.00283418 11.6589 0.000235654C 11.7383 0.00330549 11.8137 0.0362524 11.8699 0.0924928C 11.9262 0.148733 11.9591 0.224124 11.9622 0.303601C 11.9652 0.383078 11.9382 0.460786 11.8865 0.521197L 6.42793 5.98435L 11.8896 11.4444Z"/>
</defs>
</svg>
