<svg width="25" height="25" viewBox="0 0 25 25" version="1.1" xmlns="http://www.w3.org/2000/svg" xmlns:xlink="http://www.w3.org/1999/xlink">
<g id="Canvas" fill="none">
<g id="thin-expand-arrows">
<g id="Group">
<g id="Group_2">
<g id="Vector">
<path d="M 8.89764 0.144404L 0.986116 8.05583L 0.986116 5.5828C 0.986116 5.31055 0.765386 5.08982 0.493034 5.08982C 0.22078 5.08982 7.49462e-10 5.31055 7.49462e-10 5.5828L 7.49462e-10 9.24603L 7.49462e-10 9.24662L 7.49462e-10 9.27982C 7.49462e-10 9.55227 0.22078 9.7729 0.493034 9.7729L 4.1901 9.7729C 4.46235 9.7729 4.68323 9.55227 4.68323 9.27982C 4.68323 9.00756 4.46235 8.78673 4.1901 8.78673L 1.64978 8.78673L 9.59485 0.841811C 9.78754 0.649175 9.78754 0.337039 9.59485 0.144404C 9.40226 -0.0481339 9.09018 -0.0481339 8.89764 0.144404Z" transform="translate(0.487305 14.7681)" fill="#B0BEC5"/>
</g>
<g id="Vector_2">
<path d="M 9.73917 9.24585L 9.73917 5.58263C 9.73917 5.31038 9.51849 5.08965 9.24614 5.08965C 8.97378 5.08965 8.753 5.31038 8.753 5.58263L 8.753 8.05566L 0.841725 0.144329C 0.649138 -0.0481101 0.33705 -0.0481101 0.144513 0.144329C -0.048172 0.337063 -0.048172 0.6492 0.144513 0.841738L 8.08939 8.78656L 5.54912 8.78656C 5.27682 8.78656 5.05599 9.00739 5.05599 9.27964C 5.05599 9.5521 5.27682 9.77273 5.54912 9.77273L 9.24614 9.77273C 9.51849 9.77273 9.73917 9.5521 9.73917 9.27964L 9.73917 9.24644L 9.73917 9.24585Z" transform="translate(14.7482 14.7681)" fill="#B0BEC5"/>
</g>
</g>
<g id="Group_3">
<g id="Vector_3">
<path d="M 8.89764 9.6285L 0.986116 1.71727L 0.986116 4.1901C 0.986116 4.46245 0.765386 4.68308 0.493034 4.68308C 0.22078 4.68308 7.49462e-10 4.46245 7.49462e-10 4.1901L 7.49462e-10 0.526973L 7.49462e-10 0.526482L 7.49462e-10 0.493181C 7.49462e-10 0.220829 0.22078 0 0.493034 0L 4.1901 0C 4.46235 0 4.68323 0.220829 4.68323 0.493181C 4.68323 0.765435 4.46235 0.986165 4.1901 0.986165L 1.64978 0.986165L 9.59485 8.93128C 9.78754 9.12382 9.78754 9.43596 9.59485 9.6285C 9.40226 9.82113 9.09018 9.82113 8.89764 9.6285Z" transform="translate(0.487305 0.474121)" fill="#B0BEC5"/>
</g>
<g id="Vector_4">
<path d="M 9.73917 0.526973L 9.73917 4.1901C 9.73917 4.46245 9.51849 4.68308 9.24614 4.68308C 8.97378 4.68308 8.753 4.46245 8.753 4.1901L 8.753 1.71727L 0.841725 9.6283C 0.649138 9.82103 0.33705 9.82103 0.144513 9.6283C -0.048172 9.43586 -0.048172 9.12372 0.144513 8.93109L 8.08939 0.986165L 5.54912 0.986165C 5.27682 0.986165 5.05599 0.765435 5.05599 0.493181C 5.05599 0.220829 5.27682 0 5.54912 0L 9.24614 0C 9.51849 0 9.73917 0.220829 9.73917 0.493181L 9.73917 0.526482L 9.73917 0.526973Z" transform="translate(14.7482 0.474121)" fill="#B0BEC5"/>
</g>
</g>
</g>
</g>
</g>
</svg>

