<svg xmlns="http://www.w3.org/2000/svg" width="32" height="32" viewBox="0 0 32 32">
  <path fill="#B0BEC5" d="M31.8203789,4.8015925 C30.3019789,3.07205917 28.2786526,3.2286425 26.4934737,3.3666925 C24.8176842,3.4963425 23.2307368,3.61795917 22.0287158,2.33840083 L22.1539368,1.9939425 C22.2105263,1.8395925 22.2392421,1.6779675 22.2392421,1.5136675 C22.2392421,0.925714167 21.8673684,0.395364167 21.3141895,0.194110833 C20.9618526,0.0656448333 20.5804632,0.0817575 20.2401684,0.2394625 C19.8984421,0.3978525 19.6393263,0.679918333 19.5103158,1.03390083 L17.6016,6.28365083 C17.5135158,6.52595917 17.6394105,6.7934675 17.8828632,6.88112583 C18.1262316,6.9688425 18.3950316,6.84348417 18.4832,6.60117583 L20.3917474,1.35173417 C20.4350316,1.23290917 20.5218526,1.1382925 20.6360421,1.08535083 C20.7488,1.03315083 20.8751158,1.02780083 20.992,1.07035083 C21.1772632,1.13772583 21.3017263,1.31590083 21.3017263,1.5136675 C21.3017263,1.5685425 21.2921263,1.6225425 21.2728421,1.6752925 C21.2726737,1.6755425 21.2728421,1.6752925 21.0528,2.28010917 L16.9992421,13.4292008 L16.4999579,12.0561175 L17.8082526,8.45778417 C17.8963368,8.2154925 17.7704421,7.94798417 17.5269895,7.86032583 C17.2834526,7.77255083 17.0148211,7.8979675 16.9267368,8.14027583 L16.0015158,10.6851175 L12.4891789,1.0251925 C12.3605895,0.671519167 12.1016421,0.389391667 11.76,0.230815833 C11.4196211,0.0729235 11.0380632,0.056562 10.6854737,0.18509 C9.95797895,0.450171667 9.58122105,1.25723417 9.84555789,1.98423417 L9.97136842,2.3300675 C8.88673684,3.48950083 7.52583579,3.50088417 5.99601684,3.3944425 C5.73788632,3.3767675 5.51382737,3.57030917 5.49576421,3.8273675 C5.47776,4.08442583 5.67251368,4.30732583 5.93070316,4.32530083 C7.44633263,4.43050083 9.01962105,4.4254675 10.3211789,3.29235083 L12.9072,10.4046175 C11.7051789,11.6842842 10.1178105,11.5615342 8.44202105,11.4318675 C6.74914526,11.3009508 5.00176,11.1656175 3.55456842,12.4278675 L0.968311579,5.31477583 C1.49324632,4.7478425 2.28387368,4.19752583 4.00738526,4.21070917 C4.00844632,4.21070917 4.00944842,4.21070917 4.01050947,4.21070917 C4.26794947,4.21070917 4.47750737,4.00380083 4.4792,3.74717583 C4.48088421,3.48950083 4.27238737,3.27922583 4.01350737,3.27760917 C2.85256421,3.26995083 1.37105684,3.43555917 0.179555368,4.79275917 C0.00592931368,4.99052583 -0.0464458947,5.26600083 0.0429294316,5.51160917 L2.78662737,13.0576175 C2.87144421,13.2909508 3.06744421,13.4617008 3.31082105,13.5144508 C3.36207158,13.5255342 3.41363368,13.5310342 3.46469053,13.5310342 C3.65394526,13.5310342 3.83632,13.4561175 3.97237895,13.3181175 C5.15969684,12.1138675 6.71870316,12.2344508 8.36946526,12.3622008 C9.98930526,12.4875342 11.8002526,12.6265342 13.2562526,11.3642842 L14.5054316,14.7999508 L11.6010947,22.7877842 C11.3370105,23.5150342 11.7140211,24.3221175 12.4412632,24.5869508 C12.5984,24.6442008 12.7612632,24.6727008 12.9237053,24.6727008 C13.1253895,24.6727008 13.3263158,24.6287842 13.5146947,24.5415342 C13.8566737,24.3829508 14.1160421,24.1007008 14.2451368,23.7465342 L16.0018526,18.9157008 L17.7551158,23.7376175 C17.8837895,24.0912842 18.1426526,24.3733675 18.4843789,24.5319508 C18.6730105,24.6195342 18.8741895,24.6635342 19.0762105,24.6635342 C19.2386526,24.6635342 19.4016842,24.6350342 19.5589053,24.5777008 C20.2864842,24.3126175 20.6631579,23.5055342 20.3989053,22.7786175 L17.4980211,14.8002842 L18.7438316,11.3739508 C19.8261053,12.3135342 21.0625684,12.4506175 22.0622316,12.4515342 C22.0624,12.4515342 22.0624842,12.4515342 22.0626526,12.4515342 C22.3213474,12.4515342 22.5311158,12.2429508 22.5313684,11.9854508 C22.5316211,11.7277842 22.3219368,11.5186175 22.0630737,11.5183675 C20.7169684,11.5171175 19.8120421,11.1842842 19.0928,10.4140342 L21.6793263,3.3003175 C23.1352421,4.5625175 24.9465263,4.42247583 26.5664842,4.29705917 C28.2448,4.16722583 29.8320842,4.0442925 31.0316632,5.32410083 L28.4455579,12.4367008 C27.1288421,11.2881175 25.5599158,11.2938675 23.9347368,11.4122008 C23.6765474,11.4310342 23.4825263,11.6546175 23.5013895,11.9116175 C23.5202526,12.1685342 23.7448421,12.3617008 24.0031158,12.3428675 C25.5622737,12.2292842 26.9413053,12.2250342 28.0277895,13.3270342 C28.1638737,13.4650342 28.3461895,13.5398675 28.5354947,13.5398675 C28.5865263,13.5398675 28.6381474,13.5344508 28.6893474,13.5233675 C28.9328,13.4706175 29.1287579,13.2997842 29.2135579,13.0665342 L31.9572211,5.52050917 C32.0464,5.2747675 31.9940211,4.99930083 31.8203789,4.8015925 Z M13.3636211,23.4285342 C13.3201684,23.5476175 13.2332632,23.6424508 13.1188211,23.6954508 C13.0061474,23.7477008 12.88,23.7530342 12.7634526,23.7106175 C12.5195789,23.6217842 12.3935158,23.3501175 12.4824421,23.1050342 L15.0037053,16.1708675 L15.5032421,17.5447008 L13.3636211,23.4285342 Z M19.5170526,23.0961175 C19.6061474,23.3410342 19.4802526,23.6126175 19.2364632,23.7013675 C19.1196632,23.7439508 18.9931789,23.7386175 18.8804211,23.6862008 C18.7662316,23.6332008 18.6796632,23.5387008 18.6364632,23.4200342 L10.7270737,1.66665083 C10.6379789,1.42172583 10.7638737,1.15010917 11.0076632,1.06133417 C11.0597053,1.04235917 11.1136842,1.03290083 11.1675789,1.03290083 C11.2345263,1.03290083 11.3012211,1.04745917 11.3637053,1.0765175 C11.4778105,1.1295175 11.5643789,1.2240175 11.6075789,1.34277583 L19.5170526,23.0961175 Z" transform="translate(0 4)"/>
</svg>
