<svg xmlns="http://www.w3.org/2000/svg" width="32" height="32" viewBox="0 0 32 32">
  <g fill="#B0BEC5" transform="translate(6 3)">
    <path d="M19.9647813,7.60317373 L1.22942969,0.131818551 C1.05493047,0.062198973 0.855791406,0.0806848757 0.698582813,0.180952649 C0.541374219,0.281165405 0.446890463,0.450025838 0.446890463,0.630723459 L0.446890463,15.5734797 C0.446890463,15.9518581 0.862855469,16.2187662 1.22942969,16.0723337 L19.9647813,8.60094995 C20.1753281,8.51694995 20.3124375,8.32026886 20.3124375,8.10209589 C20.3124375,7.88392292 20.1753281,7.68709049 19.9647813,7.60317373 Z M1.57707812,14.7625391 L1.57707812,1.44167535 L18.2788437,8.10209589 L1.57707812,14.7625391 Z" transform="translate(4.688)"/>
    <path d="M0.799182031,1.04287892 L2.82057812,1.84896108 C2.89166406,1.87728649 2.96529688,1.89068865 3.03779688,1.89068865 C3.25903125,1.89068865 3.46913281,1.76555892 3.55960156,1.55799568 C3.6796875,1.28243784 3.5435,0.966015135 3.25541406,0.851101622 L1.23402344,0.0450134054 C0.94605,-0.0696859459 0.615188281,0.0603642919 0.494993125,0.335978054 C0.374967344,0.611537405 0.511154453,0.927957838 0.799182031,1.04287892 Z" transform="translate(7.031 3.027)"/>
    <path d="M0.645861719,1.3378173 L7.47353906,4.06049189 C7.544625,4.08887027 7.61825781,4.10227243 7.69075781,4.10227243 C7.91199219,4.10227243 8.12210938,3.9771427 8.2125,3.76957946 C8.33265625,3.49402162 8.19648438,3.17759892 7.908375,3.06268541 L1.08070313,0.339951784 C0.792786719,0.225090259 0.461867188,0.355302443 0.341728828,0.630916432 C0.221590078,0.906475784 0.357777656,1.22289622 0.645861719,1.3378173 Z" transform="translate(11.719 4.54)"/>
    <path d="M7.11977344,26.6843246 L4.51678906,26.6843246 L4.51678906,0.631054919 C4.51678906,0.332577189 4.26373437,0.0905300541 3.95169531,0.0905300541 C3.63964844,0.0905300541 3.38660156,0.332577189 3.38660156,0.631054919 L3.38660156,26.6843246 L0.565092967,26.6843246 C0.253048436,26.6843246 4.84433297e-08,26.9264111 4.84433297e-08,27.224876 C4.84433297e-08,27.5233409 0.253048436,27.7654274 0.565092967,27.7654274 L3.95169531,27.7654274 L7.11977344,27.7654274 C7.43182031,27.7654274 7.68486719,27.5233409 7.68486719,27.224876 C7.68486719,26.9264111 7.431875,26.6843246 7.11977344,26.6843246 Z"/>
    <path d="M1.6940625,0.197286869 L1.03860859,0.197286869 C0.726564062,0.197286869 0.473515501,0.439333622 0.473515501,0.737812108 C0.473515501,1.03628757 0.726564062,1.27833622 1.03860859,1.27833622 L1.6940625,1.27833622 C2.00610156,1.27833622 2.25914844,1.03628757 2.25914844,0.737812108 C2.25914844,0.439333622 2.00610156,0.197286869 1.6940625,0.197286869 Z" transform="translate(8.594 26.486)"/>
  </g>
</svg>
