<svg width="134" height="117" viewBox="0 0 134 117" fill="none" xmlns="http://www.w3.org/2000/svg">
<g style="mix-blend-mode:darken" opacity="0.3">
<g style="mix-blend-mode:difference">
<path d="M125.875 116.017C51.9543 116.647 18.6781 106.856 0 38.8753L46.6546 18.3196L114.558 94.5375L125.875 116.017Z" fill="#B0BEC5"/>
<path d="M81.9153 11.061C81.9153 8.61276 80.8529 6.16455 79.0513 4.5478C77.2498 2.93106 75.125 2.46913 72.8615 1.96101C72.8153 1.96101 72.7691 1.91482 72.7229 1.91482C68.5194 1.45289 64.7778 4.40922 64.5468 8.88991C64.5006 9.95234 64.6392 11.0148 64.9164 11.9386C65.9788 15.3107 69.0737 17.8051 72.6306 18.498C77.3422 19.3756 81.8691 16.0498 81.9153 11.061ZM70.3671 14.8026C68.9813 12.8625 69.3047 9.95234 70.0438 7.7351C70.3671 6.76505 70.829 5.8412 71.4757 5.1945C71.6143 5.05592 71.8453 4.68638 72.0762 4.68638C72.9077 4.59399 72.0762 6.85744 72.0301 7.22698C71.6605 8.75133 71.1986 10.4605 71.2448 12.031C71.2448 13.0473 71.2448 13.5554 71.5219 14.6178C71.6605 15.3569 71.0138 15.7264 70.3671 14.8026Z" fill="#9B847E"/>
<path d="M89.9529 66.6308C89.6757 66.6308 89.7219 67.0465 89.9529 67.0465C90.2301 67.0465 90.1839 66.6308 89.9529 66.6308Z" fill="#9B9A9A"/>
<path d="M113.65 87.6484C113.835 88.6646 113.743 89.727 113.465 90.7433C113.465 90.7895 113.465 90.7895 113.419 90.7895C114.158 91.4824 114.528 92.591 114.112 93.5148C115.359 94.6697 116.376 95.9169 117.253 97.3026C117.068 97.0255 117.253 96.6559 117.623 96.7021C118.269 96.8407 118.778 96.7483 119.055 96.1016C119.286 95.5935 119.239 94.993 119.009 94.4849C118.685 93.6534 117.946 93.0991 117.253 92.6372C117.207 92.591 117.161 92.5448 117.161 92.5448C116.468 92.1753 116.052 91.4362 115.544 90.8819C115.036 90.2352 114.435 89.6347 114.112 88.8494C114.066 88.757 114.112 88.6646 114.112 88.6184C114.02 88.2951 113.927 87.9717 113.881 87.6022L113.65 87.6484Z" fill="#9B9A9A"/>
<path d="M114.574 70.4186C116.883 71.6196 119.332 72.4511 121.918 72.7282C124.598 73.0054 126.953 72.3125 129.54 72.2201C128.801 70.0952 128.524 67.8318 127.739 65.7069C126.861 63.3049 125.706 60.9953 124.321 58.8704C121.641 54.7131 118.131 51.1562 114.02 48.4309C113.927 48.3385 113.835 48.2461 113.835 48.1537C112.68 48.708 111.571 49.3085 110.463 49.9552C108.43 51.2024 106.536 52.6806 104.781 54.205C108.938 55.3136 113.927 58.3161 116.329 61.7806C116.422 61.8267 116.514 61.9191 116.514 62.0577C116.837 64.9679 115.821 67.8318 114.297 70.3262C114.389 70.3724 114.481 70.3724 114.574 70.4186Z" fill="#9B9A9A"/>
<path d="M112.726 85.1079C113.188 85.8932 113.512 86.7709 113.65 87.6485L113.881 87.6023C113.696 86.4937 113.696 85.2003 113.835 84.0455C113.327 80.2577 113.835 75.9618 114.851 72.4049C114.944 72.1278 115.175 72.0816 115.359 72.174L115.405 72.0354C114.99 71.8506 114.574 71.6197 114.158 71.3887C114.02 71.2963 113.927 71.1577 113.881 71.0192C113.558 71.5273 113.188 72.0354 112.819 72.4973C111.756 73.9293 110.555 75.2227 109.354 76.5161C108.246 77.6709 107.183 79.0567 105.52 79.1953C106.075 80.4425 106.259 81.9668 106.213 83.3526C106.167 83.9069 106.167 84.4612 106.121 85.0155C107.183 85.8932 108.015 87.0018 108.754 88.1105C108.892 88.0643 109.077 88.0181 109.262 87.9719C109.216 87.4638 109.169 86.9556 109.031 86.4475C108.846 85.8008 108.523 85.1541 108.199 84.5998C108.061 84.3688 108.384 84.0917 108.615 84.2303C109.678 85.0155 110.555 86.7709 110.047 88.1567C110.278 88.4338 110.14 88.9881 109.631 88.9419C108.246 88.8495 108.153 90.4663 108.569 91.3901C108.892 92.1292 109.585 92.8683 110.232 93.3302C110.971 93.8383 111.941 94.2079 112.773 93.6074C112.773 93.6074 112.819 93.6074 112.819 93.5612C112.865 93.284 113.05 93.0531 113.281 93.0069C113.558 92.314 112.911 91.5287 112.68 90.7896C112.68 90.7434 112.68 90.6972 112.68 90.6511C112.634 90.5587 112.634 90.4663 112.68 90.3277C113.188 88.5262 112.819 86.6323 111.756 85.0617C110.74 83.6298 109.4 83.3526 108.107 82.4288C107.922 82.2902 108.015 81.9206 108.199 81.9206C110.001 81.7359 111.849 83.676 112.726 85.1079Z" fill="#9B9A9A"/>
<path d="M75.4489 1.31433C79.9296 2.33057 83.2555 6.99603 82.9783 11.5691C82.6088 16.9275 77.6662 20.6691 72.4464 19.699C68.52 19.0061 65.1479 16.2346 63.8545 12.6315C62.9307 12.9087 61.9144 13.0011 60.9444 13.1858C60.0205 13.3706 59.0967 13.6016 58.1266 13.7402C59.6972 14.4792 61.1292 15.3569 62.284 16.4193C62.515 16.6041 62.284 17.066 62.0068 16.9275C59.5124 15.8188 57.1566 14.4331 54.5236 13.5554C51.6597 12.6315 48.7957 12.3082 45.8394 11.9848C45.8394 11.9848 45.8394 11.9848 45.7932 11.9848C43.9455 13.0473 41.9592 13.8325 40.2501 15.1259C38.4948 16.4193 37.0628 17.9437 35.6308 19.5604C36.3237 19.4681 37.0166 19.4219 37.7095 19.5142C38.079 19.5142 38.4948 19.5142 38.8643 19.5142C39.1876 19.5142 39.3262 20.0686 38.9567 20.0686C37.9866 20.1609 37.0166 20.2995 36.0465 20.3457C31.7506 21.362 28.7019 23.533 25.4684 26.4893C25.4684 26.4893 25.4684 26.4893 25.4222 26.4893C25.376 26.7203 25.1451 26.9513 24.8679 26.8589C23.8517 26.5355 22.6507 26.8127 22.3735 27.9675C22.3273 28.2447 22.3273 28.5218 22.3735 28.799C22.5583 29.5842 23.1588 30.3233 23.7593 30.6929C25.2375 31.6167 28.5171 30.6929 27.8242 28.4756C27.7781 28.3832 27.8242 28.2909 27.9166 28.1985C27.7319 28.1061 27.6395 27.7365 27.9166 27.598C30.3187 26.1198 32.9516 23.8102 35.9542 24.2721C36.0465 24.2259 36.1389 24.2259 36.2313 24.2721C38.2638 25.0574 39.6496 26.9975 40.7582 28.799C42.0516 30.9238 43.2988 33.372 43.7607 35.8665C43.8531 36.005 43.8993 36.236 43.7145 36.3746C43.114 36.9751 42.2826 37.668 42.6521 38.638C43.0216 39.5157 44.1765 40.1162 45.0079 40.301C46.0704 40.5319 47.3176 40.3471 47.7795 39.2385C48.38 37.8989 47.3638 37.4832 46.4399 36.9751C46.3013 36.8827 46.2089 36.6517 46.3475 36.5132C46.1627 36.5593 45.9318 36.467 45.8856 36.236C44.9155 32.9563 44.0379 29.5842 43.2988 26.2584C43.2064 25.8888 43.4836 25.7041 43.7607 25.7503C43.8531 25.6117 43.9917 25.5193 44.1765 25.5193C47.5947 25.7041 51.013 26.9513 53.5074 29.2609C53.7383 29.4919 53.5074 29.8614 53.2302 29.769C54.1541 31.9401 55.1703 34.0649 56.2789 36.1898C57.5261 36.0974 58.6348 35.5893 58.5886 33.9264C58.5424 32.3096 57.3414 31.5243 56.1404 30.6929C56.048 30.6467 56.0018 30.5543 56.0018 30.4619C55.9556 30.4157 55.9094 30.3695 55.9094 30.3233C53.7845 25.4731 50.6434 22.7477 45.8394 20.8538C45.8394 20.8538 45.8394 20.8538 45.7932 20.8538C45.2389 20.7153 44.7308 20.4843 44.1765 20.3919C43.6683 20.2533 43.0678 20.2533 42.5597 20.0224C42.2826 19.8838 42.3287 19.5604 42.6059 19.4681C42.7907 19.4219 43.0216 19.4219 43.2064 19.4219C43.6683 18.7752 44.4074 18.3132 44.9617 17.7127C45.516 17.066 45.978 16.3731 46.5785 15.8188C46.5785 15.8188 46.6247 15.8188 46.6247 15.7726C46.3937 15.4955 46.7171 15.0797 47.0866 15.2645C48.4724 16.096 49.7196 17.1122 51.1515 17.8513C52.5835 18.5904 54.1541 19.0061 55.5861 19.6528C55.817 19.7452 55.7246 20.1148 55.4937 20.1148C53.3226 19.93 50.7358 18.8675 48.7033 17.4818C48.2414 17.7589 47.7333 17.9437 47.2252 18.1747C46.6247 18.4056 45.978 18.729 45.3775 18.9599C45.2851 19.0061 45.1465 18.9599 45.1003 18.9137C44.8693 19.1447 44.5922 19.4219 44.315 19.6066C44.3612 19.6066 44.4074 19.6066 44.4536 19.6528C44.7308 19.699 45.0079 19.7914 45.2851 19.8838C45.3313 19.8376 45.4237 19.8376 45.516 19.8376C50.551 20.5767 55.3089 25.2421 56.6485 30C58.5886 30.6005 59.9282 32.7254 59.4662 34.7116C59.1891 35.9126 58.0343 37.0675 56.8333 37.1598C59.9282 42.9339 63.6236 48.3847 67.9195 53.4197C71.0606 57.0689 74.4327 60.3948 78.1281 63.4897C81.8235 66.6308 85.9346 69.079 89.7686 72.0353C92.3092 72.451 94.8498 73.2363 96.9747 74.3911C97.9447 71.1115 99.4691 68.0166 101.502 65.2912C100.624 65.5222 99.5153 65.476 98.961 65.1988C98.6838 65.0602 98.6838 64.5983 99.0534 64.5521C99.6539 64.5059 100.254 64.5983 100.855 64.5059C101.455 64.4135 102.01 63.9978 102.564 63.9516C102.887 63.5821 103.211 63.1663 103.58 62.7968C103.811 62.5658 104.227 62.9354 104.042 63.1663C101.132 66.6308 99.0072 70.4648 97.7138 74.7607C98.1757 75.0378 98.5914 75.315 98.961 75.5921C99.1919 75.7769 99.0072 76.1927 98.73 76.1003C98.2681 75.9617 97.8062 75.7769 97.3442 75.5921C97.1595 75.6845 96.9285 75.5922 96.7899 75.4074C95.127 74.7607 93.5102 74.0216 91.7549 73.6059C91.0158 73.4211 90.2767 73.2825 89.5839 73.1439C87.69 72.8206 85.7499 72.7282 83.7636 72.6358C83.5326 72.6358 83.394 72.4972 83.3017 72.3587C82.655 71.9429 82.1468 71.4348 81.5001 71.0191C80.9458 70.6957 80.3453 70.4186 79.7448 70.8805C79.3753 71.1577 79.1443 71.7582 79.0981 72.1739C78.821 74.0216 80.8073 75.3612 82.2392 73.9754C82.4702 73.7444 82.7011 73.7906 82.8859 73.9292C82.9783 73.883 83.0707 73.8368 83.2093 73.8368C86.9509 74.2988 91.0158 76.1927 93.1407 79.4261C93.1869 79.5185 93.1869 79.6109 93.1407 79.6571C93.464 79.5647 93.7412 79.4723 94.0646 79.38C94.4341 79.2414 94.6189 79.7957 94.2493 79.9805C89.8148 82.1053 85.7499 84.3688 81.9621 87.4637C81.8235 87.6022 81.6849 87.6022 81.5463 87.5561C81.3616 87.6946 80.992 87.7408 80.8072 87.4637C80.1144 86.586 79.1443 87.7408 78.9595 88.2951C78.821 88.7109 78.821 89.219 78.8672 89.6347C78.9134 90.7434 79.1905 91.9444 79.9758 92.7296C80.7611 93.5149 82.1468 93.8844 83.0707 93.053C83.7636 92.4063 83.5788 91.7596 83.7174 90.9281C83.7174 90.8357 83.8098 90.7895 83.856 90.7433C83.8098 90.5586 83.856 90.3738 84.0869 90.2814C88.66 87.5561 93.9722 84.4611 99.4691 84.7845C99.8848 84.7845 99.8386 85.3388 99.4691 85.385C99.3767 85.385 99.2843 85.4312 99.1919 85.4312C101.548 88.2489 101.963 92.6834 100.716 96.0555C100.716 96.0555 100.716 96.1017 100.67 96.1017C100.762 96.2403 100.762 96.4712 100.624 96.6098C99.0996 98.0418 99.8848 100.444 102.01 100.582C103.072 100.675 104.504 100.12 104.874 99.058C105.336 97.857 103.95 97.6261 103.349 96.9332C103.211 96.7946 103.257 96.5636 103.488 96.5174C103.488 96.4712 103.488 96.425 103.488 96.3789C103.765 93.2378 104.55 90.0966 104.92 86.9094C105.012 86.2627 105.105 85.5698 105.151 84.8769C105.474 81.8744 105.474 78.5947 102.287 77.2089C101.917 77.0703 102.056 76.516 102.472 76.5622C103.719 76.7932 104.596 77.4861 105.151 78.4099C107.922 77.3937 110.417 73.7444 112.08 71.481C114.205 68.5709 115.359 65.476 115.729 61.8729C113.927 60.4871 112.311 58.8704 110.371 57.6694C108.338 56.4222 106.213 55.5907 104.042 54.6669C101.825 56.6993 99.7462 58.9166 97.8062 61.2724C97.529 61.5958 97.0209 61.18 97.2518 60.8567C100.07 56.5146 104.088 52.9115 108.384 50.0476C110.047 48.939 111.849 47.8765 113.65 46.9989C114.02 46.8141 114.389 46.6293 114.805 46.4446C117.438 45.2436 119.748 44.4583 121.595 42.1948C118.916 41.4558 116.699 39.7466 114.343 38.2685C110.925 36.0974 107.229 34.4807 103.349 33.372C99.3767 32.2172 95.3579 31.8939 91.2468 31.7091C87.5052 31.5705 83.3478 31.5705 79.8834 29.9076C79.3753 29.6766 79.6986 28.8914 80.2067 29.0299C87.69 31.1548 95.4965 30.1848 103.026 32.171C106.398 33.0487 109.678 34.3883 112.726 36.0974C115.821 37.8065 118.639 40.4395 122.057 41.4558C122.104 41.3172 122.196 41.271 122.381 41.271C124.736 41.5943 123.674 34.7116 123.905 33.3259C123.951 33.1411 124.136 33.0949 124.275 33.1411V33.0949C124.09 33.0487 123.997 32.9101 123.951 32.7715C121.133 29.769 119.794 25.4731 120.394 21.362C120.856 18.1285 122.889 13.6478 126.446 12.9087C124.829 11.8463 123.305 11.1996 121.041 11.3843C118.454 11.5691 115.175 12.3082 113.419 14.3869C113.142 14.7102 112.819 14.4792 112.726 14.1559C108.661 12.6315 104.874 10.7376 100.624 9.76759C96.3742 8.75135 92.0783 8.38181 87.7362 8.428C87.5514 8.428 87.4128 8.33562 87.3204 8.19704C87.2742 8.38181 87.0433 8.4742 86.8585 8.33562C84.9184 6.44172 83.3478 4.31685 80.9458 2.88488C79.1905 1.86864 77.389 1.40672 75.4489 1.31433ZM89.9534 67.0465C89.7224 67.0465 89.6762 66.6308 89.9534 66.6308C90.1844 66.6308 90.2306 67.0465 89.9534 67.0465Z" fill="#9B9A9A"/>
<path d="M121.364 22.4243C121.133 26.0273 122.38 29.3994 124.69 32.0786C128.801 30.97 132.173 27.9674 132.589 23.4867C133.005 19.0061 130.141 15.9573 126.676 13.6477C123.489 15.8188 121.595 18.4979 121.364 22.4243ZM127.97 28.4756C127.739 28.7989 127.184 28.5217 127.323 28.106C128.016 26.4893 128.709 25.0573 128.894 23.2558C128.986 22.101 128.894 20.9923 128.709 19.9299C128.57 19.4218 128.385 18.9137 128.247 18.3594C128.201 18.1746 128.293 18.0822 128.432 18.036C128.57 17.8974 128.847 17.8974 128.94 18.0822C128.986 18.1746 129.032 18.267 129.078 18.3594C131.157 20.7614 130.787 26.1659 128.201 28.106C128.108 28.2446 128.062 28.3832 127.97 28.4756Z" fill="#9B847E"/>
</g>
<path d="M121.318 41.733C120.671 41.4559 120.071 41.1787 119.424 40.9478C119.147 40.8554 118.916 40.994 118.823 41.2249C114.389 38.1762 109.724 35.2661 104.596 33.6493C101.64 32.7255 98.6373 32.3097 95.5424 32.1712C94.9419 32.125 94.2952 32.125 93.6485 32.0788C93.7408 31.894 93.6023 31.663 93.4175 31.6168C91.1541 31.2011 88.5211 31.4783 86.2114 31.6168C83.8094 31.2473 81.6845 30.3234 79.3287 29.6768C76.7419 28.9377 74.3861 29.2148 71.9379 30.2311C69.5359 31.2473 67.3648 32.7255 65.3323 34.3422C63.1151 36.0975 60.2512 37.8529 58.5882 40.2087C58.4958 40.3011 58.5882 40.4858 58.7268 40.4396C58.9116 40.3473 59.0963 40.2549 59.2811 40.1625C59.2349 40.2087 59.1887 40.3011 59.1887 40.3935L59.0963 40.4396C59.0039 40.532 58.9578 40.6706 58.9578 40.763C59.0501 41.3635 59.2349 41.9178 59.5583 42.4721C59.743 42.7955 59.974 43.3036 60.3897 43.4422C63.3923 49.7244 68.4734 55.2675 73.5085 59.8406C76.4186 62.4736 79.4673 64.9218 82.6084 67.3238C85.6109 69.5872 88.8906 72.7283 92.7246 73.3288C93.0479 73.375 93.1865 73.0055 93.0018 72.8207C93.6485 71.4349 93.9256 69.8644 94.4799 68.4324C95.1266 66.7695 95.8657 65.1527 96.7434 63.5822C98.5911 60.3025 100.901 57.3462 103.534 54.7132C106.12 52.1264 109.031 49.9091 112.172 48.0614C114.897 46.4909 117.807 45.2437 120.348 43.396C120.717 43.6269 121.225 43.2112 120.995 42.8879C121.133 42.7955 121.272 42.6569 121.41 42.5645C121.687 42.2874 121.595 41.8716 121.318 41.733Z" fill="#B2ADBC"/>
<path d="M104.966 61.5958C103.534 61.5034 101.501 61.8268 100.162 61.3187C98.7296 60.8106 99.561 60.3948 99.3301 59.5172C99.1453 58.8705 98.0367 58.9167 98.1752 59.6095C98.2214 59.7943 97.7133 60.5334 97.7133 60.8567C97.7133 60.9491 97.7595 60.9953 97.7595 61.0877C97.4824 61.0415 97.159 61.2263 97.0666 61.4573C95.4961 64.3674 93.4174 67.9704 92.8631 71.2963C92.7707 71.8506 92.7707 72.2663 93.1403 72.7283C93.7869 73.5135 96.6971 74.4836 97.6671 74.7145C97.7595 74.7145 97.8519 74.7607 97.9443 74.7607C97.8981 74.5298 97.8981 74.2988 97.9443 74.0217C97.8519 74.114 97.7595 74.114 97.6209 74.114C98.1753 71.8968 99.4225 69.8643 100.623 67.7856C101.963 65.6146 103.395 63.6745 103.857 63.074C104.226 62.6121 105.058 63.0278 104.827 63.6283C103.672 66.0765 102.748 68.6171 101.871 71.1577C101.917 71.0653 102.009 70.9729 102.055 70.8806C103.765 68.2476 104.873 65.3374 105.52 62.2887C105.566 61.9654 105.289 61.5958 104.966 61.5958Z" fill="#B2ADBC"/>
<path d="M57.295 19.5143C57.0178 19.191 56.7407 18.8676 56.4173 18.5905C56.4173 18.4981 56.3711 18.4057 56.2788 18.3595C56.1402 18.2671 56.0478 18.2209 55.9092 18.1748C54.0153 16.789 51.3823 16.2809 49.1651 15.8651C47.8717 15.6342 46.6707 15.3108 45.4697 15.9113C44.0839 16.6042 42.6057 18.0362 41.6819 19.2834C41.4971 19.5605 41.7743 19.8839 42.0976 19.7453C42.1438 19.7453 42.1438 19.6991 42.19 19.6991C42.2824 19.8377 42.5133 19.9301 42.6981 19.8377C43.5296 19.4681 44.2225 19.0986 44.9154 18.4981C45.3773 18.0824 45.9316 17.6204 46.3011 17.0661C47.456 16.7428 48.657 17.0199 49.9504 17.3433C50.2275 17.3895 50.5047 17.4819 50.7818 17.5742C51.8904 18.6367 53.1838 19.422 54.7544 19.6529C54.893 19.6529 55.0316 19.6067 55.1239 19.4681C55.5859 19.7453 56.094 20.0687 56.5559 20.392C57.1102 20.7154 57.6645 20.0225 57.295 19.5143Z" fill="#B2ADBC"/>
<path d="M105.428 82.6597C105.52 80.8582 105.335 79.1029 103.904 77.8557C102.287 76.4237 99.7924 75.6846 97.7137 75.0379C96.6051 73.9293 94.9421 73.6983 93.464 73.4212C92.1244 73.1902 90.7848 73.0054 89.399 73.0978C88.8447 72.9592 88.2442 72.8669 87.6437 72.8207C87.5513 72.8207 87.5051 72.8207 87.4589 72.8669C87.1356 72.7745 86.8122 72.6821 86.4427 72.5897C86.027 72.4973 85.6112 72.4973 85.1955 72.4511C84.0407 72.3125 83.5787 71.8968 82.7011 71.2501C81.6848 70.5572 80.4838 70.0491 79.5138 71.1115C77.4351 73.3288 80.992 75.8694 83.0706 73.9755C83.7173 74.2064 84.4102 74.345 84.9183 74.4836C87.8285 75.3613 90.3229 76.7932 92.6325 78.6409V78.6871C92.7249 79.1491 93.002 79.6572 93.4178 79.9343C91.7548 80.7658 90.1843 81.8744 88.6599 82.7983C86.1193 84.3226 83.5787 85.8932 80.992 87.3714C80.2991 86.9556 79.4214 87.1866 78.9595 87.9719C78.1742 89.2191 78.9595 91.3439 79.6524 92.4064C81.5001 95.3165 84.6874 93.5612 83.9945 90.5125C83.9945 90.4663 83.9945 90.4201 83.9945 90.3739C87.6899 88.8957 91.1081 86.7709 94.8036 85.3851C96.1431 85.3389 97.5289 85.2465 98.8685 85.1079C100.439 87.3252 101.271 89.9581 101.132 92.7297C101.04 94.3926 100.578 95.8708 99.8848 97.3952C99.6076 97.9495 99.1919 98.5038 99.3304 99.1505C99.7462 101.599 105.52 101.553 105.289 98.6886C105.197 97.8571 104.643 97.7647 104.227 97.1642C103.303 95.686 104.319 92.8221 104.55 91.2053C104.874 88.4338 105.289 85.5236 105.428 82.6597Z" fill="#9B847E"/>
<path d="M118.685 93.4687C117.16 91.3439 114.62 90.4662 113.927 87.7408C113.834 87.3251 113.188 87.3713 113.095 87.7408C112.726 85.5698 111.155 83.5835 108.984 83.0292C108.753 82.7982 108.568 82.6134 108.338 82.4287C107.737 81.9667 107.137 82.983 107.645 83.4449C107.737 83.5373 107.876 83.6297 107.968 83.7683C108.661 84.4611 109.215 85.2464 109.539 86.2165C110 87.6946 109.77 88.1104 108.938 89.2652C108.892 89.3114 108.846 89.4038 108.799 89.4499C108.799 89.4499 108.799 89.45 108.753 89.4961C108.707 89.4961 108.661 89.5423 108.661 89.5423C108.384 89.7271 108.338 89.9119 108.338 90.2352C108.291 90.3738 108.291 90.5586 108.291 90.7895C108.476 92.3601 111.248 95.1317 112.911 93.8844C113.419 93.5149 113.465 92.9144 113.419 92.3139C113.373 92.0367 113.326 91.7134 113.28 91.4362C113.696 92.822 114.296 94.1154 115.22 95.224C116.006 96.1941 117.391 97.7184 118.731 96.7022C119.84 95.9169 119.331 94.4388 118.685 93.4687Z" fill="#9B847E"/>
<path d="M58.1264 32.2634C57.4797 31.2472 56.5096 30.4157 55.9091 29.3533C55.3086 28.3371 54.8005 27.2746 54.1076 26.3508C52.9528 24.8264 51.567 23.533 49.9964 22.4706C47.733 20.9462 44.9614 19.8838 42.1899 19.699C40.8503 19.0985 39.0488 19.3757 37.3397 19.93C33.3209 20.1148 29.7641 22.4244 26.9001 25.2883C26.8539 25.3345 26.8539 25.3807 26.8077 25.4269C26.2072 25.8889 25.6529 26.397 25.1448 26.9513C25.0986 26.9513 25.0986 26.9513 25.0524 26.9051H25.0062C24.6829 26.7203 24.3133 26.6741 23.8976 26.7665C23.8052 26.8127 23.7128 26.8127 23.5742 26.8589C23.0199 26.9051 22.5118 27.3208 22.4194 27.9213C22.4194 27.9675 22.4194 27.9675 22.4194 28.0137C22.0961 28.7528 22.4656 29.5843 23.0661 30.0924L23.1123 30.1386C24.0362 31.2472 26.0224 31.9863 27.2235 30.8777C27.7316 30.4157 27.9625 29.7228 27.8702 29.0761C28.1473 28.5218 28.3783 27.9675 28.5168 27.367C29.5331 26.6279 30.5955 26.0274 31.7965 25.4731C32.9052 25.0112 34.1062 24.5955 35.261 24.1797C35.3072 24.1797 35.3072 24.2259 35.3534 24.2259C36.4158 24.9188 37.432 25.6117 38.4945 26.3046L38.5407 26.3508C38.633 26.4894 38.7716 26.5355 38.864 26.5355C39.095 26.6741 39.3259 26.8127 39.5107 26.9513C40.7117 28.8452 41.8665 30.7853 42.8366 32.8178C42.8366 32.8639 42.8366 32.8639 42.8366 32.9101C43.2061 33.9264 43.3909 34.8502 43.2985 35.8665C43.2061 35.9127 43.1137 36.005 43.1137 36.1436C43.1137 36.4208 43.0675 36.5594 43.0675 36.6979C42.3746 37.0675 42.0975 38.0837 42.467 38.869C43.0213 40.1624 45.0076 40.5781 46.2548 40.4395C47.4558 40.301 48.5645 39.1923 48.0102 37.9451C47.733 37.2984 47.0863 37.0213 46.532 36.7441C46.4396 36.2822 46.2548 35.7741 45.8391 35.6355C45.1924 32.402 44.3609 28.9838 43.2061 25.8889C43.2523 25.8889 43.3447 25.8889 43.3909 25.8889C46.301 25.1036 49.9503 26.9051 52.1213 28.8914C53.9228 30.5081 54.1076 32.9101 55.4934 34.804C55.7243 35.0812 55.9091 35.3122 56.1401 35.4969C56.0939 35.5893 56.0939 35.7279 56.1401 35.8203C56.1863 35.9127 56.2786 36.0512 56.4172 36.1436C56.6482 36.2822 56.9253 36.3746 57.2025 36.3284C57.7106 36.236 58.2649 35.7741 58.2649 35.2198C58.773 34.5269 58.8192 33.3259 58.1264 32.2634Z" fill="#9B847E"/>
<path d="M55.2627 19.8377C55.1242 19.9301 55.0318 20.0225 54.8932 20.0687C54.847 19.9301 54.7084 19.8377 54.5698 19.8377C53.2765 19.6529 52.1678 18.6829 50.8282 18.96C50.0892 19.1448 49.4425 19.5606 48.7034 19.7453C47.7795 19.9763 46.9019 20.0225 45.9318 20.0687C45.6085 20.0687 45.6547 20.4844 45.9318 20.5306C46.3937 20.5768 46.8557 20.5768 47.2714 20.5768C47.179 20.8078 47.2714 21.0387 47.5486 21.1773C48.5648 21.6392 50.3663 22.794 51.5673 22.7017C51.5673 22.7478 51.5673 22.794 51.5211 22.8402C51.5211 22.8864 51.5673 22.9326 51.6135 22.9326C52.214 23.1174 52.8145 22.4245 53.3226 22.1011C54.1079 21.5468 54.9394 21.0387 55.6785 20.4382C56.0018 20.1611 55.5861 19.6067 55.2627 19.8377Z" fill="#B5B5B6"/>
<path d="M76.0959 19.0523C75.4492 19.2371 74.8949 19.5605 74.2944 19.7452C74.2482 19.7452 74.202 19.699 74.1096 19.699C69.7213 19.6529 67.4579 17.4356 64.9635 14.0635C64.8711 13.925 64.6863 13.8326 64.5478 13.8326C64.6401 13.6016 64.7325 13.4168 64.8249 13.1859C65.0097 12.7701 64.5478 12.5854 64.2706 12.8625C62.5153 14.8488 62.8848 17.528 64.7325 19.3295C67.2269 21.7315 70.9224 21.2696 74.0173 20.8077C74.1096 20.8077 74.202 20.7615 74.2482 20.6691C75.0335 20.4843 75.8188 20.161 76.3731 19.6529C76.6964 19.4219 76.5117 18.9138 76.0959 19.0523Z" fill="#B5B5B6"/>
<path d="M46.5324 40.2548C46.1167 40.1624 45.701 40.301 45.2852 40.2548C44.7309 40.1624 44.1766 39.8391 43.8533 39.3772C43.5299 38.9152 43.4837 38.4071 43.5761 37.8528C43.7147 37.2985 44.0842 36.9752 44.3614 36.5132C44.4538 36.3746 44.4538 36.2361 44.4076 36.0975C44.5462 36.0513 44.6847 35.9127 44.6385 35.7279C44.5462 33.8802 43.4375 31.9863 42.5137 30.4158C41.4513 28.6143 40.1579 26.9051 38.5873 25.5194C38.3102 25.2884 37.8944 25.6118 38.1254 25.9351C39.3726 27.4595 40.5736 28.9838 41.5436 30.6468C42.5137 32.3097 42.9756 34.2498 43.9457 35.8665H43.8995C42.3751 36.4208 42.0518 38.7305 42.8832 39.9315C43.299 40.5782 44.038 41.0401 44.7771 41.1787C45.4238 41.3173 46.3939 41.2711 46.7634 40.6706C46.8096 40.4858 46.7172 40.301 46.5324 40.2548Z" fill="#F26E42"/>
<path d="M56.8798 35.8203C56.1407 34.3421 55.494 33.0025 54.9859 31.3858C54.6164 30.1848 54.1545 28.9838 53.2768 28.0599C51.2905 26.1198 47.3641 25.2883 44.685 25.5193C44.4078 25.5193 44.1768 25.9812 44.5464 26.0736C47.7799 27.0437 51.9372 27.0437 53.5078 30.5543C54.3392 32.3558 54.4778 34.9888 56.2793 36.1898C56.5103 36.3746 57.0646 36.1898 56.8798 35.8203Z" fill="#F26E42"/>
<path d="M112.403 84.2764C111.156 81.6434 109.955 79.8419 110.371 76.747C110.463 76.1003 109.678 75.8231 109.308 76.2851C108.569 77.2551 107.738 77.948 106.675 78.5947C106.398 78.7333 106.028 78.8257 105.844 79.0566C105.336 79.7033 105.613 80.7196 105.705 81.4587C105.798 82.4749 105.982 83.3987 106.259 84.2764C105.844 84.5536 105.844 85.2927 106.444 85.385C106.49 85.385 106.49 85.385 106.537 85.385C106.583 85.385 106.629 85.385 106.675 85.385C107.137 86.3551 107.738 87.2789 108.615 88.1566C108.985 88.4799 109.585 88.0642 109.493 87.6023C109.354 86.8632 109.17 86.1241 108.892 85.385C109.123 85.7084 109.354 86.0317 109.493 86.4013C110.001 87.4637 109.909 88.018 109.585 88.7571C107.507 89.5424 108.384 91.8058 109.631 93.053C110.093 93.5149 110.879 92.7759 110.463 92.2677C109.632 91.2977 109.955 90.3738 110.602 89.45C110.74 89.2652 110.925 89.0804 111.017 88.8495C111.248 88.2952 111.063 87.7409 110.925 87.1865C110.463 85.7084 109.585 84.3226 108.338 83.4449C108.292 82.983 108.523 82.6597 109.308 83.1216C109.632 83.3064 109.955 83.1216 110.093 82.7982C110.509 83.5835 111.11 84.2764 111.849 84.7845C112.126 84.9231 112.588 84.6459 112.403 84.2764Z" fill="#B5B5B6"/>
<path d="M118.27 96.1017C117.3 94.993 116.376 93.9768 115.591 92.7296C114.852 91.5286 114.482 90.0966 113.651 88.988C113.42 88.6646 113.05 88.988 113.05 89.2652C113.05 90.2814 113.558 91.39 114.112 92.3139C113.928 92.4525 113.789 92.6372 113.835 92.8682C114.251 94.8083 116.006 96.0555 117.669 96.8869C118.131 97.1641 118.593 96.4712 118.27 96.1017Z" fill="#B5B5B6"/>
<path d="M123.304 72.1278C119.978 70.7882 118.084 68.2938 116.375 65.2451C116.191 64.9217 115.729 65.1527 115.775 65.4761C115.821 65.6608 115.867 65.7994 115.913 65.9842C115.729 66.2151 115.682 66.4923 115.636 66.8156C115.544 67.3238 115.359 67.8319 115.128 68.34C114.851 68.9867 114.02 69.7258 114.25 70.4187C114.297 70.5111 114.343 70.6496 114.435 70.6496C114.481 70.6496 114.528 70.6496 114.528 70.6958C114.666 70.742 114.805 70.742 114.897 70.6496C115.59 71.3425 116.699 71.5735 117.623 71.8506C118.777 72.6359 120.302 72.9593 121.78 72.8669C121.872 72.8669 121.918 72.8207 122.011 72.8207C122.334 72.9593 122.658 73.144 122.935 73.2364C123.628 73.5136 123.997 72.405 123.304 72.1278Z" fill="#B5B5B6"/>
<path d="M100.162 67.6471C100.347 67.4623 100.532 67.3237 100.716 67.0928C100.994 66.8156 100.716 66.2613 100.347 66.4461C96.7901 68.2938 93.5104 68.8481 89.5841 67.6009C86.212 66.5384 83.1171 64.6907 80.1608 62.7968C74.4791 59.1014 69.5826 54.5745 65.1481 49.4472C64.64 48.8928 63.9471 49.7243 64.3629 50.2324C67.4116 54.1126 71.0608 57.6233 75.0334 60.672C74.9872 60.7644 75.0334 60.8567 75.0796 60.9491C77.8049 64.044 81.6389 66.7694 85.1034 68.9405C86.2582 69.6333 86.3968 70.28 87.5978 70.8805C87.5054 71.0653 88.5216 71.2963 88.7526 71.5273C89.6303 72.2663 91.2008 72.9592 92.4018 72.6821C93.8338 73.2826 95.2658 73.7907 96.6977 74.2988C97.0211 74.3912 97.252 74.2988 97.3906 74.114C97.4368 74.114 97.483 74.114 97.5292 74.114C98.0835 71.8968 99.3307 69.8643 100.532 67.8318C100.486 67.6933 100.301 67.6471 100.162 67.6471Z" fill="#B2ADBC"/>
<path d="M104.781 63.6744C103.626 66.1226 102.703 68.6632 101.825 71.2038C100.901 72.682 99.6539 74.9454 97.8985 74.8069C97.8523 74.5759 97.8523 74.3449 97.8985 74.0678C97.8062 74.1602 97.7138 74.1602 97.5752 74.1602C98.1295 71.9429 99.3767 69.9104 100.578 67.8318C101.917 65.6607 103.349 63.7206 103.811 63.1201C104.227 62.6582 105.058 63.0739 104.781 63.6744Z" fill="#B2ADBC"/>
<path d="M104.781 63.6744C103.626 66.1226 102.703 68.6632 101.825 71.2038C100.901 72.682 99.6539 74.9454 97.8985 74.8069C97.8523 74.5759 97.8523 74.3449 97.8985 74.0678C97.8062 74.1602 97.7138 74.1602 97.5752 74.1602C98.1295 71.9429 99.3767 69.9104 100.578 67.8318C101.917 65.6607 103.349 63.7206 103.811 63.1201C104.227 62.6582 105.058 63.0739 104.781 63.6744Z" fill="#B2ADBC"/>
<path d="M101.871 71.1577C101.317 72.7744 100.808 74.4373 100.254 76.1003C100.116 76.5622 99.3303 76.3312 99.4227 75.8693C99.3303 75.9155 99.1917 75.9617 99.0993 75.9155C98.4526 75.7307 98.0831 75.315 97.9907 74.7145C99.6999 74.9455 100.947 72.6358 101.871 71.1577Z" fill="#B5B5B6"/>
<path d="M112.31 94.0693C111.479 94.1617 110.694 94.3926 109.862 93.9307C108.892 93.3764 108.892 92.3601 108.476 91.4363C108.245 90.9282 108.014 90.6048 107.645 90.2815C107.691 90.2353 107.691 90.1891 107.691 90.1429C107.83 89.681 107.876 89.2652 107.876 88.8495C108.107 88.8495 108.292 88.7571 108.43 88.5723C108.707 88.2028 108.476 87.7871 108.061 87.6947C107.876 87.6485 107.876 87.6947 107.737 87.6485C107.737 87.6485 107.691 87.6485 107.645 87.6023C107.46 87.1404 107.229 86.6785 106.86 86.2627C106.444 85.7546 105.659 86.2627 105.612 86.7708C105.52 87.8333 104.966 89.7734 105.659 90.7434C106.074 91.2977 106.721 91.3901 107.091 92.0368C107.368 92.5911 107.46 93.1916 107.737 93.7459C108.569 95.2703 111.202 96.3327 112.495 94.7622C112.726 94.485 112.68 94.0231 112.31 94.0693Z" fill="#6C7379"/>
<path d="M100.763 100.351C99.4692 100.12 99.2382 98.6884 99.2382 97.3488C99.5154 97.4874 99.8387 97.4412 100.023 97.1179C100.809 95.5011 101.178 93.8382 101.086 92.0367C101.086 91.6671 100.763 91.4824 100.485 91.4362C100.393 89.6346 100.07 87.8793 99.2844 86.355C99.1458 86.0778 98.7763 86.0778 98.5915 86.2626C98.3606 85.7545 98.0834 85.3387 97.7139 85.154C97.3905 84.9692 97.021 85.2001 96.8362 85.5235C96.79 85.5697 96.79 85.6159 96.7438 85.6621C96.559 85.9854 96.7438 86.4473 97.0672 86.5859C97.1134 86.5859 97.1134 86.6321 97.1595 86.6321C97.2057 86.6783 97.2519 86.6783 97.2981 86.6783C97.6677 87.4174 97.8524 89.4961 97.8986 89.8194C98.0372 90.6509 98.1296 91.4824 98.1296 92.3138C98.1758 93.9306 97.9448 95.5011 97.9448 97.1179C97.9448 98.8732 98.3144 101.09 100.254 101.506C100.532 101.552 100.901 101.275 100.901 100.998C100.901 100.906 100.901 100.813 100.901 100.721C100.994 100.582 100.947 100.398 100.763 100.351Z" fill="#6C7379"/>
<path d="M92.4943 78.8719C91.8938 78.2714 91.4781 77.7632 90.739 77.3475C90.5542 77.2551 90.3232 77.2551 90.1385 77.3475C88.1522 75.6384 85.7502 73.9293 83.4867 74.114C83.1172 74.1602 83.1634 74.6222 83.3943 74.7607C84.8725 75.6846 86.4893 76.0541 87.9212 77.1627C88.7989 77.8094 89.5842 78.5485 90.3694 79.2414C88.0598 80.4424 85.8426 81.8282 83.7639 83.3988C82.8862 84.0455 81.87 85.2927 80.8999 85.7546C80.0223 86.1241 79.237 85.8932 78.4517 86.4937C75.7264 88.48 77.1583 93.3764 80.3456 93.9307C80.5304 93.9769 80.7614 93.7921 80.669 93.5611C79.7913 91.9906 77.6203 90.5586 78.6827 88.48C79.0984 87.6947 81.8238 86.8632 82.7938 86.0779C85.3806 83.9069 88.1522 82.013 91.1085 80.3962C91.2009 80.6734 91.5243 80.8582 91.8014 80.6272C91.9862 80.4886 92.1248 80.3962 92.3095 80.2577C92.5405 80.1191 92.5867 79.8419 92.4943 79.611C92.6791 79.4724 92.6791 79.0566 92.4943 78.8719Z" fill="#6C7379"/>
<path d="M87.1359 70.742C86.9973 70.7882 86.8587 70.7882 86.7663 70.7882C86.7663 70.6496 86.7663 70.5572 86.5815 70.4648C85.1034 69.5872 83.579 68.7557 82.147 67.8318C80.946 67.0004 79.8374 66.0303 78.6826 65.1527C78.6826 65.1527 78.6826 65.1065 78.6364 65.1065C74.8486 61.9654 71.1994 58.5933 67.9659 54.8517C66.3491 52.8192 64.871 50.6943 63.2542 48.6157C61.7761 46.3984 60.3441 44.0888 58.9121 41.8254C58.8197 41.6868 58.7274 41.6406 58.635 41.6406C58.2192 40.8553 57.8497 40.0238 57.434 39.1924C57.3878 39.0538 57.2492 38.9614 57.1568 38.9152C55.7248 35.7279 54.2929 32.5406 52.9533 29.3071C52.7685 28.8914 52.399 28.9838 52.168 29.2148C52.168 29.1686 52.1218 29.1224 52.1218 29.1224C50.5974 27.3209 47.1792 26.0275 44.8695 26.4432C44.3152 26.5356 44.3614 27.2747 44.8695 27.367C46.1167 27.6442 47.3178 27.6442 48.565 28.1061C49.6736 28.5219 50.5974 29.2148 51.6137 29.7229C51.7523 29.8153 51.8908 29.7691 52.0294 29.6767C52.0294 29.7229 52.0294 29.7691 52.0756 29.8153C53.5538 33.4183 55.1243 36.9289 56.8796 40.3472C59.4202 46.2598 62.8847 51.803 66.9496 56.7456C69.0283 59.2862 71.2918 61.6882 73.6938 63.9055C75.6339 65.6608 77.7587 67.7394 80.0684 69.1252C79.8374 69.1252 79.6064 69.1714 79.3755 69.2638C77.7587 69.7257 77.112 71.5734 77.9897 72.9592C78.313 73.4673 79.0059 73.144 78.775 72.5435C78.0359 70.5572 80.207 70.1415 81.5927 70.5572C82.3318 70.7882 83.0247 71.2039 83.7638 71.5272C84.9648 72.0816 86.2582 72.4049 87.5054 71.7582C88.1059 71.5734 87.7825 70.6034 87.1359 70.742Z" fill="#6C7379"/>
<path d="M45.5621 40.532C43.2063 40.0239 41.682 39.8391 42.1901 37.0213C44.5459 36.467 42.0515 31.894 41.2662 30.8777C41.1738 30.7391 40.9891 30.7391 40.8505 30.7853C39.6957 28.4757 37.8942 25.8889 35.6769 24.7341C35.446 24.5955 35.0302 24.8265 35.215 25.1498C36.3698 26.8128 37.8942 28.1524 38.9566 29.9077C39.6033 31.0163 40.1576 32.1249 40.6195 33.3259C41.1277 34.7117 40.8967 35.7741 40.6657 37.2061C40.2038 40.0239 42.7906 42.0563 45.516 41.2249C45.9317 41.1325 45.9317 40.5782 45.5621 40.532Z" fill="#6C7379"/>
<path d="M126.492 66.7694C126.215 66.1227 125.891 65.476 125.614 64.8293C124.182 61.4572 122.381 58.3623 120.117 55.4522C118.316 53.0963 115.544 49.0776 112.403 48.5233C112.126 48.4771 111.987 48.6618 111.987 48.8928C111.803 48.8004 111.618 48.7542 111.433 48.708C111.064 48.6157 110.833 49.17 111.11 49.4009C112.449 50.6943 114.159 51.6182 115.591 52.8654C117.022 54.1126 118.316 55.4984 119.517 56.9765C122.058 60.1638 124.044 63.6745 125.984 67.2313C126.122 67.6008 126.677 67.1389 126.492 66.7694Z" fill="#BCBCBC"/>
<path d="M114.62 62.4735C114.112 60.9953 112.496 59.9329 111.202 59.1476C109.585 58.1776 107.738 57.2537 105.89 56.8842C105.567 56.838 105.29 57.2537 105.613 57.4847C106.814 58.27 108.2 58.8243 109.493 59.471C110.74 60.5796 112.311 61.6882 112.911 63.074C113.096 64.2288 112.958 65.3836 112.449 66.4923C112.403 66.6308 112.403 66.7232 112.496 66.8156C111.618 68.8019 110.509 70.6958 109.401 72.5897C109.216 72.8669 109.678 73.2364 109.909 72.9592C111.156 71.5735 112.218 70.0491 113.096 68.3862C113.697 67.1852 114.667 65.6146 114.667 64.2288C114.667 63.8131 114.528 63.3974 114.389 62.9816C114.528 62.8431 114.713 62.6583 114.62 62.4735Z" fill="#BCBCBC"/>
<path d="M113.604 73.0516C112.726 75.315 112.495 77.8556 112.403 80.2576C112.403 80.6734 113.004 80.6734 113.004 80.3038C113.188 77.9018 113.789 75.546 114.205 73.1902C114.251 72.7744 113.696 72.7282 113.604 73.0516Z" fill="#BCBCBC"/>
<path d="M101.594 78.0868H101.547C100.947 77.4401 100.208 76.9781 99.3763 77.0705C99.0992 77.0705 98.9144 77.4863 99.2377 77.6248C99.9306 77.902 100.531 78.1791 101.039 78.5949C101.039 78.6411 101.085 78.6873 101.132 78.7335C101.224 78.8258 101.316 78.9182 101.455 79.0106C101.501 79.103 101.594 79.1954 101.64 79.2878C102.009 79.9345 102.24 80.7197 102.425 81.4588C102.933 83.3065 103.164 85.2466 103.21 87.1405C103.21 87.2791 103.303 87.3715 103.349 87.4177C103.21 88.7111 102.979 90.0045 102.887 91.2517C102.841 91.575 103.349 91.575 103.395 91.2979C104.088 87.6024 106.398 80.1192 101.594 78.0868Z" fill="#A79590"/>
<path d="M103.118 97.4414C102.98 97.3953 102.887 97.3491 102.749 97.3491C102.425 97.3491 102.379 97.9034 102.656 98.042C102.795 98.2267 103.026 98.4115 103.118 98.6886C103.211 99.1044 102.934 99.2891 102.795 99.6125C102.703 99.7973 102.841 100.121 103.072 100.121C103.719 100.167 104.042 99.4277 104.042 98.8734C103.95 98.2729 103.673 97.6262 103.118 97.4414Z" fill="#A79590"/>
<path d="M82.5161 90.7435C82.3775 91.1593 82.1928 91.7598 81.8232 92.0369C81.4537 92.3141 81.2689 92.0369 80.9456 91.8983C80.807 91.806 80.5298 91.806 80.4375 92.0369C80.1141 92.8684 81.4075 93.0532 81.9156 92.9146C82.7933 92.6374 83.0242 91.7598 83.0704 90.9283C83.1628 90.5588 82.6547 90.4202 82.5161 90.7435Z" fill="#A79590"/>
<path d="M81.6388 72.7745C81.3616 72.8669 81.223 73.0517 80.9459 73.0979C80.6687 73.1441 80.3916 73.0517 80.2068 72.8669C79.9297 72.636 79.4677 73.0055 79.7449 73.2827C80.0682 73.6522 80.484 73.837 80.9921 73.837C81.454 73.837 82.0083 73.606 82.1469 73.0979C82.2393 72.9131 81.8697 72.6822 81.6388 72.7745Z" fill="#A79590"/>
<path d="M111.479 85.385C111.248 85.1079 110.694 85.385 110.925 85.7084C111.756 86.8632 111.895 88.0642 111.987 89.45C111.987 89.7733 112.495 89.7733 112.588 89.4962C112.957 88.0642 112.357 86.4937 111.479 85.385Z" fill="#A79590"/>
<path d="M119.055 94.7622C118.731 94.3003 118.362 93.8845 117.992 93.4226C117.669 93.0531 117.115 93.5612 117.392 93.9307C117.715 94.3465 118.039 94.7622 118.408 95.1317C118.685 95.4089 119.286 95.0855 119.055 94.7622Z" fill="#A79590"/>
<path d="M49.9041 24.5493C48.2411 21.4082 44.1762 20.2995 40.8965 20.5305C40.4808 20.5767 40.6193 21.131 40.9427 21.1772C44.3147 21.7777 47.0863 22.101 49.3959 24.8726C49.5807 25.1036 50.0888 24.8726 49.9041 24.5493Z" fill="#A79590"/>
<path d="M26.8079 28.753C26.7155 28.5682 26.2536 28.4758 26.2074 28.753C26.115 29.2149 25.6993 29.7692 25.145 29.5844C24.7292 29.3997 24.5444 29.954 24.8678 30.1849C25.3297 30.5083 25.9302 30.4621 26.3922 30.0925C26.9003 29.8154 27.085 29.2611 26.8079 28.753Z" fill="#A79590"/>
<path d="M58.6811 16.4656C54.57 13.7864 49.7659 12.5392 44.8695 12.8625C44.4538 12.9087 44.5924 13.463 44.9619 13.463C49.7659 13.463 54.0619 14.8026 58.173 17.297C58.7273 17.6666 59.1893 16.8351 58.6811 16.4656Z" fill="#BCBCBC"/>
<path d="M111.571 14.895C110.416 14.4793 109.262 14.0636 108.061 13.694C104.596 12.0773 100.901 11.061 97.1129 10.4605C94.4799 10.0448 90.5073 9.39809 88.2439 11.1996C88.0591 11.3382 88.0591 11.6615 88.1977 11.8463C88.1515 11.9387 88.1515 12.0311 88.1053 12.0773C88.0591 12.262 88.2439 12.4468 88.4287 12.5392C88.5211 12.6778 88.6596 12.8163 88.8444 12.8163C92.8632 12.5854 96.4662 12.262 100.485 12.9549C104.18 13.6016 107.691 14.8488 111.294 15.6803C111.895 15.8189 112.033 15.0336 111.571 14.895Z" fill="#BCBCBC"/>
<path d="M121.826 12.4007C119.84 12.4469 116.468 12.9089 115.175 14.6642C115.129 14.7104 115.082 14.7566 115.036 14.849C115.036 14.8951 114.99 14.8951 114.99 14.9413C114.944 15.0337 114.944 15.1261 114.99 15.1723C114.898 16.0962 115.914 16.3271 116.653 15.9576C117.346 15.588 117.992 14.9413 118.685 14.5256C119.702 13.9251 120.81 13.4632 121.965 13.2322C122.473 13.0936 122.381 12.4007 121.826 12.4007Z" fill="#BCBCBC"/>
<path d="M78.2662 17.2046C77.7581 17.4356 77.2038 17.5742 76.6495 17.6666H76.6033C73.8317 17.528 71.4759 17.6204 69.2124 15.7265C66.3947 13.4168 64.7317 10.0448 65.2861 6.44175C65.3323 6.07221 64.7779 5.84125 64.5932 6.1646C63.5307 8.0585 63.8541 10.1372 64.7779 12.0311C65.3323 14.4331 66.6256 16.5579 69.0277 17.6204C69.9515 18.0361 71.014 18.3595 72.1226 18.5904C73.0926 18.8676 74.1551 19.0062 75.1251 18.8676C76.4647 18.8676 77.7581 18.5904 78.7743 17.9899C79.2824 17.6666 78.8205 16.9737 78.2662 17.2046Z" fill="#AE2E26"/>
<path d="M128.201 30.2771C123.72 31.3395 121.688 24.5954 121.919 21.3157C121.919 20.9924 121.41 20.8076 121.318 21.1771C120.81 22.5629 120.902 24.4106 121.41 26.1197C121.318 26.2121 121.272 26.3507 121.272 26.4893C121.41 28.2908 122.519 31.0624 124.228 32.0324C125.475 32.7253 127.508 32.171 128.616 31.3395C129.078 30.97 128.847 30.0923 128.201 30.2771Z" fill="#AE2E26"/>
<path d="M80.2531 9.16709C79.8836 7.45797 78.9597 5.88741 77.6663 4.7326C76.2806 3.48539 73.9709 2.28439 72.0308 2.79251C71.7537 2.79251 71.4765 2.79251 71.1994 2.79251C70.7374 2.8387 70.9684 3.48539 71.3379 3.53159C71.4765 3.53159 71.6151 3.57778 71.7537 3.62397L71.7999 3.67017C71.9384 3.71636 72.0308 3.76255 72.1694 3.80874C72.3542 3.94732 72.5389 4.03971 72.7699 4.13209C72.9547 4.22448 73.1395 4.31686 73.3242 4.36306C74.479 5.24072 75.7724 5.9798 76.7887 7.04223C78.544 8.84375 79.5602 10.9686 79.2831 13.5092C79.2369 13.8787 79.8374 13.9711 79.9298 13.6016C79.9298 13.5554 79.9298 13.5554 79.9298 13.5092C80.6227 12.4006 80.6689 10.4605 80.2531 9.16709Z" fill="#E0958B"/>
<path d="M129.54 16.7426C128.755 15.8188 127.092 14.5716 126.076 15.5878C125.845 15.5878 125.66 15.7726 125.522 15.9574C125.475 16.0497 125.429 16.0959 125.383 16.1883C125.106 16.6502 125.475 17.1584 125.983 17.1584C128.155 17.2508 130.603 20.1609 130.695 22.2858C130.741 22.9325 131.665 22.8401 131.665 22.1934C131.619 20.1609 130.88 18.267 129.54 16.7426Z" fill="#E0958B"/>
<path d="M72.0771 4.68648C71.8923 4.68648 71.6151 5.05602 71.4765 5.1946C70.8298 5.8413 70.3679 6.76515 70.0446 7.7352C69.3055 9.99864 68.9821 12.8626 70.3679 14.8027C71.0146 15.6803 71.6613 15.357 71.4304 14.5717C71.1532 13.5093 71.1994 13.0474 71.1532 11.9849C71.1532 10.4144 71.6151 8.70524 71.9385 7.18089C72.077 6.85754 72.9085 4.5941 72.0771 4.68648Z" fill="#010101"/>
<path d="M117.623 96.7485C117.3 96.7023 117.069 97.0718 117.254 97.349C117.669 97.9033 118.408 97.9957 119.055 97.6723C119.84 97.3028 120.164 96.4251 120.21 95.5937C120.21 94.0693 119.147 92.3602 117.577 92.1754C117.577 92.1754 117.577 92.1754 117.577 92.1292C117.346 91.3901 116.699 90.7896 116.191 90.2353C115.729 89.681 115.313 89.1267 114.805 88.711C114.944 87.8333 114.805 86.8633 114.805 85.9394C114.852 85.8932 114.898 85.8008 114.898 85.7084C114.944 83.6298 114.759 81.5511 114.805 79.4724C114.898 77.1628 115.267 74.8993 115.591 72.5897C115.637 72.3588 115.498 72.2202 115.36 72.174C115.175 72.0816 114.944 72.174 114.852 72.4049C113.835 75.9618 113.327 80.2115 113.835 84.0455C113.697 85.2003 113.697 86.4475 113.882 87.6023C113.928 87.9719 114.02 88.2952 114.112 88.6186C114.066 88.6648 114.066 88.7572 114.112 88.8495C114.436 89.5886 115.036 90.2353 115.544 90.882C116.006 91.4825 116.468 92.1754 117.161 92.545C117.161 92.5911 117.207 92.6373 117.254 92.6373C117.946 93.1455 118.686 93.6998 119.009 94.485C119.24 94.9932 119.286 95.5937 119.055 96.1018C118.778 96.7947 118.27 96.8409 117.623 96.7485Z" fill="#010101"/>
<path d="M128.94 18.0823C128.848 17.8975 128.571 17.8975 128.432 18.0361C128.294 18.0823 128.201 18.1746 128.247 18.3594C128.386 18.9137 128.525 19.4218 128.709 19.93C128.894 21.0386 128.986 22.101 128.894 23.2558C128.709 25.0112 128.016 26.4893 127.324 28.1061C127.139 28.4756 127.693 28.7528 127.97 28.4756C128.063 28.3832 128.109 28.2446 128.201 28.1523C130.788 26.2122 131.158 20.8076 129.079 18.4056C129.033 18.267 128.987 18.1746 128.94 18.0823Z" fill="#010101"/>
<path d="M128.201 13.6016C127.277 11.0148 123.859 10.2757 121.411 10.3681C118.454 10.5067 114.99 11.3382 113.004 13.694C109.539 11.2458 105.151 9.86 101.086 8.88995C96.6514 7.78133 92.1245 7.3194 87.5976 7.45798C87.3667 7.45798 87.2743 7.59656 87.2281 7.73514C85.0108 2.97729 77.8048 -1.5034 72.6312 0.482885C72.585 0.482885 72.5388 0.529078 72.4926 0.575271C68.0581 0.159537 63.947 3.57779 63.3465 8.15087C63.1617 9.53665 63.3003 10.8762 63.6236 12.1234C61.6373 12.0311 59.0967 12.5392 57.2952 13.2321C57.249 13.2321 57.2028 13.2783 57.1566 13.3244C53.5074 11.7539 49.3501 10.9686 45.7932 11.061C45.6547 11.061 45.5623 11.1072 45.5161 11.1996C41.3587 12.2158 36.9704 15.9574 34.6608 19.4219C34.5684 19.5605 34.5684 19.6528 34.6146 19.7452C34.3837 19.8376 34.1527 19.8838 33.9679 19.9762C33.9217 19.9762 33.9217 20.0224 33.8755 20.0224C30.4573 20.9462 27.3624 23.3945 25.0527 25.935C23.8055 25.4269 22.2812 25.8889 21.6807 27.2284C21.4497 27.6904 21.4035 28.1985 21.4959 28.6604C18.0314 29.7228 14.7056 31.9401 11.3797 33.5106C8.42337 34.8964 5.32846 36.0512 2.37213 37.437C1.67924 37.7604 0.986346 38.0837 0.293456 38.4533C-0.0298931 38.638 0.154878 39.1462 0.524419 39.0538C1.12492 38.9152 1.67924 38.7304 2.27974 38.5456C5.46704 37.5294 8.51575 36.005 11.5183 34.6193C14.798 33.0949 18.7705 31.6629 21.6345 29.3533C21.9116 30.0924 22.3736 30.7391 22.9741 31.2472C24.3598 32.402 26.2999 32.2173 27.7319 31.2472C28.7481 30.5543 29.3025 29.0762 28.2862 28.1985C30.5497 26.8589 33.4136 24.5955 36.1852 25.1036C37.8019 26.3508 39.0953 27.6904 40.2039 29.5381C41.3587 31.5244 42.0978 33.6954 43.1603 35.6817C41.9592 36.6056 41.1278 37.9451 42.0516 39.3771C42.9755 40.8553 45.1465 41.6406 46.8095 41.2248C48.1029 40.8553 49.3501 39.6543 49.1191 38.1761C48.9805 37.1137 47.8257 35.8665 46.7171 36.3746C46.7633 36.3284 46.7633 36.236 46.7633 36.1898C46.4399 32.9563 45.6547 29.5381 44.4998 26.4894C47.3176 26.8127 49.7658 27.6904 52.1678 29.03C52.1216 29.1223 52.1216 29.2609 52.1678 29.3995C53.1379 31.8939 54.2465 34.3421 55.4937 36.7441C58.7272 43.1187 62.7921 49.0776 67.4576 54.4359C70.6449 58.1313 74.1555 61.5496 77.9433 64.6907C80.9921 67.1851 84.3179 69.7719 87.8748 71.712C86.489 71.5734 85.1032 71.481 83.856 71.481C83.1169 70.5572 81.6388 69.4485 80.4378 69.5409C79.0982 69.6333 78.3129 71.0653 78.2205 72.2663C78.0819 73.5597 78.7286 74.8993 79.9296 75.4074C80.9459 75.8231 82.2855 75.6846 83.0245 74.8069C86.9971 75.4074 89.7687 77.3013 92.7712 79.8419C92.7712 79.8419 92.8174 79.8881 92.8636 79.8881C88.7062 81.4124 84.8261 83.8607 81.5002 86.7246C81.454 86.7708 81.454 86.7708 81.4078 86.817C80.5301 86.0317 79.1444 86.2627 78.4515 87.2789C77.4352 88.8495 77.8972 91.4825 78.9596 92.9144C79.9296 94.254 81.8697 95.0855 83.3941 94.1616C84.3179 93.6073 85.057 92.2215 84.5027 91.2515C84.5489 91.2515 84.5951 91.2053 84.6413 91.2053C89.122 88.6647 93.3717 86.4475 98.4529 85.6622C100.07 89.1728 100.809 92.083 100.208 96.0093V96.0555C99.0072 96.656 98.6839 98.2266 99.0996 99.4738C99.5615 100.86 100.993 101.552 102.425 101.552C103.857 101.552 105.844 100.721 106.075 99.1042C106.259 97.9494 105.243 96.887 104.135 96.7022C105.243 93.4687 105.798 89.7733 106.121 86.2165C106.768 87.048 107.507 87.787 108.292 88.4799C107.738 88.9419 107.414 89.7271 107.507 90.5124C107.645 92.0368 108.939 93.5149 110.232 94.3002C111.202 94.9007 112.495 95.0855 113.466 94.4388C119.424 100.213 120.21 109.267 125.568 115.41C125.753 115.641 125.938 115.826 126.122 116.011C126.399 116.334 126.861 115.918 126.63 115.595C126.446 115.364 126.307 115.133 126.122 114.902C122.427 109.544 120.81 102.753 117.253 97.3489C116.376 95.9631 115.359 94.7159 113.974 93.5611C114.436 92.6373 114.112 91.5286 113.419 90.8358L113.512 90.7896C113.789 89.7733 113.881 88.7109 113.743 87.6947C113.604 86.817 113.327 85.9855 112.819 85.1541C111.987 83.7221 110.093 81.782 108.292 82.0591C108.061 82.1053 108.015 82.4287 108.2 82.5673C109.539 83.4911 110.879 83.7683 111.849 85.2002C112.911 86.7246 113.327 88.6185 112.773 90.4662C112.726 90.6048 112.773 90.6972 112.773 90.7896C112.773 90.8358 112.773 90.882 112.773 90.9281C113.05 91.6672 113.65 92.4525 113.373 93.1454C113.142 93.1916 112.957 93.4225 112.911 93.6997L112.865 93.7459C112.034 94.3002 111.063 93.9769 110.324 93.4687C109.678 93.0068 108.985 92.2677 108.661 91.5286C108.246 90.651 108.338 88.9881 109.724 89.0804C110.232 89.1266 110.371 88.5723 110.14 88.2952C110.648 86.9556 109.77 85.2002 108.708 84.3688C108.477 84.2302 108.153 84.5074 108.292 84.7383C108.661 85.3388 108.939 85.9393 109.123 86.586C109.262 87.0941 109.262 87.6023 109.354 88.1104C109.17 88.1104 108.985 88.1566 108.846 88.249C108.107 87.1403 107.229 85.9855 106.213 85.1541C106.259 84.5997 106.259 84.0454 106.306 83.4911C106.352 82.1515 106.213 80.6272 105.613 79.3338C107.276 79.1952 108.338 77.8094 109.447 76.6546C110.648 75.3612 111.849 74.0678 112.911 72.6358C113.281 72.1739 113.604 71.6658 113.974 71.1577C114.02 71.2963 114.112 71.4348 114.251 71.5272C114.667 71.7582 115.082 71.9891 115.498 72.1739C117.715 73.2363 120.117 73.8368 122.565 73.9754C124.921 74.114 127.831 74.0678 129.864 72.8206C130.002 72.913 130.233 72.8668 130.233 72.6358C130.233 72.5435 130.233 72.4511 130.233 72.3125C130.372 67.7856 127.785 62.6582 125.522 58.9166C122.796 54.4359 119.147 50.6481 114.805 47.738C115.914 47.2299 117.069 46.7217 118.177 46.1674C119.84 45.3822 121.688 44.3659 122.288 42.5182C122.565 42.5644 122.843 42.6106 123.12 42.6568C123.397 42.703 123.536 42.472 123.536 42.2873C124.09 42.1025 124.552 41.5482 124.737 40.9477C125.06 39.8852 124.829 38.4995 124.783 37.3908C124.737 36.0512 124.783 34.7117 124.506 33.4183C124.506 33.3259 124.413 33.2335 124.321 33.2335C124.182 33.1873 123.951 33.2335 123.951 33.4183C123.72 34.804 124.783 41.6867 122.427 41.3634C122.288 41.3634 122.196 41.4096 122.104 41.5482C118.685 40.5319 115.868 37.8989 112.773 36.1898C109.724 34.4807 106.444 33.1873 103.072 32.2634C95.5428 30.2772 87.7362 31.2472 80.253 29.1223C79.6987 28.9838 79.3753 29.769 79.9296 30C83.3941 31.6167 87.5514 31.6629 91.293 31.8015C95.4042 31.9863 99.4229 32.3096 103.396 33.4645C107.276 34.5731 110.971 36.236 114.389 38.3609C116.745 39.839 118.962 41.5944 121.642 42.2873C119.794 44.5507 117.484 45.336 114.851 46.537C114.482 46.7217 114.066 46.9065 113.696 47.0913C111.895 47.969 110.093 48.9852 108.431 50.14C104.135 53.004 100.116 56.6532 97.2981 60.9491C97.0671 61.3186 97.5752 61.7344 97.8524 61.3648C99.8387 59.009 101.871 56.7918 104.088 54.7593C106.259 55.7293 108.384 56.5146 110.417 57.7618C112.403 59.009 113.974 60.5796 115.775 61.9653C115.406 65.5684 114.251 68.6633 112.126 71.5734C110.463 73.8369 107.969 77.4861 105.197 78.5023C104.597 77.5785 103.765 76.8856 102.518 76.6546C102.102 76.5622 101.964 77.1165 102.333 77.3013C105.52 78.6409 105.52 81.9206 105.197 84.9693C105.105 85.6622 105.012 86.3551 104.966 87.0018C104.597 90.1429 103.811 93.284 103.534 96.4713C103.534 96.5175 103.534 96.5636 103.534 96.6098C103.349 96.656 103.303 96.887 103.396 97.0256C103.996 97.6723 105.382 97.9032 104.92 99.1504C104.504 100.213 103.118 100.767 102.056 100.675C99.9311 100.49 99.1458 98.088 100.67 96.7022C100.809 96.5636 100.809 96.3327 100.716 96.1941C100.716 96.1941 100.716 96.1479 100.763 96.1479C102.01 92.7758 101.594 88.3413 99.2382 85.5236C99.3306 85.5236 99.4229 85.4774 99.5153 85.4774C99.8849 85.4312 99.9311 84.8769 99.5153 84.8769C94.0184 84.5997 88.7062 87.6947 84.1332 90.3738C83.9484 90.5124 83.9022 90.6972 83.9022 90.8358C83.8098 90.8819 83.7636 90.9281 83.7636 91.0205C83.625 91.8058 83.8098 92.4987 83.1169 93.1454C82.1931 93.9769 80.8073 93.6073 80.022 92.822C79.2367 92.0368 78.9596 90.7896 78.9134 89.7271C78.9134 89.2652 78.8672 88.8033 79.0058 88.3875C79.1905 87.787 80.1606 86.6784 80.8535 87.5561C81.0383 87.8332 81.4078 87.787 81.5926 87.6485C81.7311 87.6947 81.8697 87.6947 82.0083 87.5561C85.7961 84.415 89.9073 82.1515 94.2956 80.0729C94.6189 79.8881 94.4803 79.38 94.1108 79.4724C93.7874 79.5647 93.5103 79.6571 93.1869 79.7495C93.2331 79.6571 93.2331 79.6109 93.1869 79.5185C91.0621 76.2851 86.9971 74.3912 83.2555 73.9292C83.1169 73.9292 83.0245 73.9754 82.9322 74.0216C82.7474 73.883 82.5164 73.883 82.2855 74.0678C80.8535 75.4536 78.8672 74.0678 79.1444 72.2663C79.2367 71.8044 79.4215 71.2501 79.7911 70.9729C80.3916 70.511 80.9921 70.7881 81.5464 71.1115C82.1931 71.481 82.7474 72.0353 83.3479 72.4511C83.4403 72.5897 83.5788 72.7282 83.8098 72.7282C85.7961 72.8206 87.69 72.913 89.6301 73.2363C90.3692 73.3749 91.1083 73.5135 91.8011 73.6983C93.5565 74.1602 95.1732 74.8531 96.8362 75.4998C96.9285 75.6846 97.2057 75.7769 97.3905 75.6846C97.8524 75.8693 98.3143 76.0541 98.7762 76.1927C99.0534 76.2851 99.2382 75.8693 99.0072 75.6846C98.6377 75.3612 98.1757 75.0841 97.76 74.8531C99.0534 70.5572 101.178 66.677 104.088 63.2587C104.319 62.9816 103.857 62.612 103.626 62.8892C103.257 63.2587 102.934 63.6283 102.61 64.044C102.056 64.044 101.455 64.4597 100.901 64.5983C100.301 64.6907 99.7001 64.5983 99.0996 64.6445C98.7301 64.6907 98.7301 65.1526 99.0072 65.2912C99.6077 65.5684 100.67 65.6146 101.548 65.3836C99.5153 68.109 97.991 71.2039 97.0209 74.4835C94.8961 73.3287 92.3555 72.5896 89.8149 72.1277C85.9809 69.2176 81.8697 66.7232 78.1743 63.5821C74.5251 60.4872 71.1068 57.1151 67.9657 53.5121C63.6698 48.5233 59.9744 43.0725 56.8795 37.2523C58.0805 37.1137 59.2353 36.005 59.5125 34.804C59.9744 32.8178 58.5886 30.6929 56.6947 30.0924C55.3551 25.2884 50.5973 20.6229 45.5623 19.93C45.4699 19.93 45.3775 19.93 45.3313 19.9762C45.0542 19.8838 44.777 19.7914 44.4998 19.7452C44.4537 19.7452 44.4075 19.7452 44.3613 19.699C44.6384 19.5143 44.9156 19.2371 45.1465 19.0061C45.2389 19.0523 45.3313 19.0985 45.4237 19.0523C46.0704 18.8676 46.6709 18.5442 47.2714 18.2671C47.7795 18.0823 48.2876 17.8975 48.7496 17.5742C50.782 18.96 53.415 20.0224 55.5399 20.2072C55.817 20.2072 55.8632 19.8376 55.6323 19.7452C54.2003 19.0523 52.6298 18.6366 51.1978 17.9437C49.7658 17.2046 48.5186 16.1884 47.1328 15.3569C46.8095 15.1722 46.4399 15.5879 46.6709 15.865C46.6709 15.865 46.6247 15.865 46.6247 15.9112C46.0242 16.4656 45.5623 17.1584 45.008 17.8051C44.4537 18.4056 43.7146 18.8676 43.2526 19.5143C43.0217 19.5143 42.8369 19.5143 42.6521 19.5605C42.375 19.6528 42.3288 19.9762 42.6059 20.1148C43.1141 20.3457 43.7146 20.2534 44.2227 20.3919C44.777 20.5305 45.2851 20.7615 45.8394 20.7615C45.8394 20.7615 45.8394 20.7615 45.8856 20.7615C50.6897 23.0711 53.8308 25.4731 55.9556 30.3234C56.0018 30.3695 56.0018 30.4619 56.048 30.5081C56.048 30.6005 56.0942 30.6929 56.1866 30.7391C57.3876 31.5244 58.5886 32.3096 58.6348 33.9726C58.681 35.6355 57.5724 36.1436 56.3252 36.236C55.2165 34.1573 54.2003 31.9863 53.2765 29.8152C53.5536 29.9076 53.8308 29.5843 53.5536 29.3071C51.0592 26.9513 47.6409 25.7041 44.2227 25.5655C44.0379 25.5655 43.8993 25.6579 43.807 25.7965C43.5298 25.7503 43.2526 25.935 43.345 26.3046C44.0841 29.6305 44.9618 33.0487 45.9318 36.2822C45.978 36.467 46.209 36.5594 46.3937 36.5594C46.2552 36.6979 46.3014 36.9289 46.4861 37.0213C47.4562 37.5294 48.4262 37.9451 47.8257 39.2847C47.3176 40.3934 46.1166 40.5781 45.0542 40.3472C44.1765 40.1624 43.0217 39.6081 42.6983 38.6842C42.3288 37.7604 43.1603 37.0213 43.7608 36.4208C43.9455 36.236 43.8993 36.0512 43.807 35.9127C43.345 33.4645 42.0978 31.0162 40.8044 28.8452C39.742 27.0437 38.31 25.1498 36.2775 24.3183C36.1852 24.2721 36.0928 24.2721 36.0004 24.3183C32.9979 23.8564 30.3649 26.166 27.9629 27.6442C27.6857 27.7828 27.7781 28.1523 27.9629 28.2447C27.8705 28.2909 27.8243 28.3833 27.8705 28.5218C28.5634 30.7391 25.2837 31.6629 23.8055 30.7391C23.205 30.3695 22.6045 29.6305 22.4197 28.8452C22.3736 28.568 22.3736 28.2909 22.4197 28.0137C22.6969 26.8589 23.9441 26.5817 24.9142 26.9051C25.1913 26.9975 25.4685 26.7665 25.4685 26.5356C25.4685 26.5356 25.4685 26.5356 25.5147 26.5356C28.7481 23.5792 31.7969 21.4082 36.0928 20.3919C37.0628 20.3457 38.0329 20.2072 39.0029 20.1148C39.3725 20.0686 39.2339 19.5605 38.9105 19.5605C38.541 19.5605 38.1714 19.5605 37.7557 19.5605C37.0628 19.5143 36.3699 19.5143 35.677 19.6067C37.109 17.9899 38.541 16.4655 40.2963 15.1722C42.0516 13.8788 43.9917 13.0935 45.8394 12.0311C45.8394 12.0311 45.8394 12.0311 45.8856 12.0311C48.842 12.4006 51.7059 12.6778 54.5698 13.6016C57.2028 14.4793 59.5125 15.865 62.0531 16.9737C62.3302 17.1122 62.5612 16.6503 62.3302 16.4656C61.1292 15.4493 59.6972 14.5255 58.1729 13.7864C59.0967 13.6478 60.0668 13.4168 60.9906 13.2321C61.9607 13.0473 62.9307 12.9549 63.9008 12.6778C65.1942 16.2808 68.52 19.0523 72.4926 19.7452C77.7124 20.6691 82.655 16.9737 83.0245 11.6153C83.3479 7.04225 79.9758 2.37678 75.4951 1.36055C77.4352 1.45293 79.2367 1.91486 81.0844 3.02348C83.4865 4.45546 85.057 6.58032 86.9971 8.47422C87.1357 8.6128 87.3667 8.52041 87.459 8.33564C87.5514 8.47422 87.69 8.5666 87.8748 8.5666C92.2169 8.47422 96.5128 8.88995 100.763 9.90619C105.012 10.9224 108.8 12.7701 112.865 14.2945C112.957 14.5717 113.281 14.8026 113.558 14.5255C115.313 12.4468 118.547 11.7077 121.18 11.5229C123.443 11.3382 124.967 11.9849 126.584 13.0473C123.027 13.7864 120.995 18.2671 120.533 21.5006C119.932 25.6117 121.272 29.8614 124.09 32.9101C124.136 33.0487 124.275 33.1873 124.413 33.2335C124.459 33.2335 124.459 33.2335 124.506 33.2335C124.598 33.2797 124.69 33.2335 124.783 33.2335C129.402 32.633 133.051 28.5218 133.559 23.9026C133.929 20.0224 131.896 15.3569 128.201 13.6016ZM116.514 62.1039C116.514 61.9653 116.422 61.873 116.329 61.8268C113.881 58.3623 108.892 55.3598 104.781 54.2512C106.537 52.6806 108.431 51.2486 110.463 50.0014C111.572 49.3085 112.68 48.7542 113.835 48.1999C113.881 48.2923 113.927 48.3847 114.02 48.4771C118.131 51.2024 121.688 54.7593 124.321 58.9166C125.707 61.0415 126.861 63.3511 127.739 65.7531C128.524 67.878 128.848 70.1414 129.541 72.2663C126.954 72.3587 124.598 73.0978 121.919 72.7744C119.332 72.4973 116.884 71.6658 114.574 70.4648C114.482 70.4186 114.343 70.3724 114.251 70.4186C115.775 67.878 116.838 65.0141 116.514 62.1039ZM47.0866 16.1884C47.41 16.5117 47.7795 16.7889 48.1491 17.0661C47.6871 17.2046 47.2714 17.3894 46.8557 17.5742C46.5785 17.7128 46.3014 17.8051 46.0242 17.9437C46.4861 17.4356 46.9019 16.8813 47.0866 16.1884ZM79.052 4.54784C80.8997 6.16458 81.9621 8.6128 81.9159 11.061C81.8697 16.0036 77.3428 19.3757 72.585 18.498C69.0282 17.8513 65.9332 15.3107 64.8708 11.9387C64.5475 10.9686 64.4089 9.95238 64.5013 8.88995C64.7322 4.40926 68.52 1.45293 72.6774 1.91486C72.7236 1.91486 72.7698 1.96105 72.816 1.96105C75.1256 2.46917 77.2505 2.9311 79.052 4.54784ZM132.543 23.533C132.174 28.0137 128.755 31.0162 124.644 32.1249C122.335 29.4457 121.087 26.0736 121.318 22.4706C121.549 18.498 123.443 15.8189 126.63 13.694C130.095 15.9574 132.959 19.0061 132.543 23.533Z" fill="#010101"/>
</g>
</svg>
