<svg width="15" height="15" viewBox="0 0 15 15" version="1.1" xmlns="http://www.w3.org/2000/svg" xmlns:xlink="http://www.w3.org/1999/xlink">
<g id="Canvas" fill="none">
<g id="Vector">
<path d="M 7 0C 3.11818 0 0 3.11818 0 7C 0 10.8818 3.11818 14 7 14C 10.8818 14 14 10.8818 14 7C 14 3.11818 10.8818 0 7 0ZM 7.63636 10.8182C 7.63636 11.0091 7.50909 11.1364 7.31818 11.1364L 6.68182 11.1364C 6.49091 11.1364 6.36364 11.0091 6.36364 10.8182L 6.36364 10.1818C 6.36364 9.99091 6.49091 9.86364 6.68182 9.86364L 7.31818 9.86364C 7.50909 9.86364 7.63636 9.99091 7.63636 10.1818L 7.63636 10.8182ZM 8.49545 7.98636C 8.05 8.36818 7.73182 8.62273 7.63636 8.97273C 7.60455 9.13182 7.47727 9.22727 7.31818 9.22727L 6.68182 9.22727C 6.49091 9.22727 6.33182 9.06818 6.36364 8.87727C 6.49091 7.95455 7.15909 7.44545 7.7 7C 8.27273 6.55455 8.59091 6.26818 8.59091 5.72727C 8.59091 4.83636 7.89091 4.13636 7 4.13636C 6.10909 4.13636 5.40909 4.83636 5.40909 5.72727C 5.40909 5.79091 5.40909 5.85455 5.40909 5.91818C 5.44091 6.07727 5.34545 6.23636 5.18636 6.26818L 4.58182 6.45909C 4.39091 6.52273 4.2 6.39545 4.16818 6.20455C 4.13636 6.04545 4.13636 5.88636 4.13636 5.72727C 4.13636 4.13636 5.40909 2.86364 7 2.86364C 8.59091 2.86364 9.86364 4.13636 9.86364 5.72727C 9.86364 6.90455 9.1 7.50909 8.49545 7.98636Z" transform="translate(0.386841 0.507812)" fill="#B0BEC5"/>
</g>
</g>
</svg>

