<svg width="24" height="24" viewBox="0 0 24 24" version="1.1" xmlns="http://www.w3.org/2000/svg" xmlns:xlink="http://www.w3.org/1999/xlink">
<title>Logout Icon</title>
<desc>Created using Figma</desc>
<g id="Canvas" transform="translate(-101 -4326)">
<g id="Logout Icon">
<g id="Group">
<g id="Sign Out">
<g id="Vector">
<use xlink:href="#path0_fill" transform="translate(101 4326)" fill="#B0BEC5"/>
</g>
<g id="Vector">
<use xlink:href="#path1_fill" transform="translate(106.252 4332.01)" fill="#B0BEC5"/>
</g>
</g>
</g>
</g>
</g>
<defs>
<path id="path0_fill" d="M 11.25 22.4999L 1.50002 22.4999L 1.50002 1.49996L 11.25 1.49996C 11.664 1.49996 12 1.16393 12 0.749978C 12 0.336025 11.6639 2.96102e-12 11.25 2.96102e-12L 0.749978 2.96102e-12C 0.336025 2.96095e-12 0 0.335963 0 0.749978L 0 23.2499C 0 23.6639 0.336025 23.9998 0.749978 23.9998L 11.2499 23.9998C 11.6639 23.9998 11.9999 23.6638 11.9999 23.2499C 12 22.8358 11.6639 22.4999 11.25 22.4999Z"/>
<path id="path1_fill" d="M 18.5301 5.47113L 13.3551 0.221907C 13.0619 -0.074343 12.5872 -0.0735949 12.2946 0.221907C 12.0014 0.51741 12.0014 0.997383 12.2946 1.29289L 16.1947 5.24913L 0.749978 5.24913C 0.335963 5.24913 3.42456e-08 5.58814 3.42456e-08 6.00665C 3.42456e-08 6.42515 0.336025 6.76417 0.749978 6.76417L 16.1947 6.76417L 12.2946 10.7204C 12.0014 11.0167 12.0014 11.4959 12.2946 11.7914C 12.5879 12.0876 13.0626 12.0876 13.3551 11.7914L 18.5294 6.54217C 18.8189 6.25041 18.8219 5.76214 18.5301 5.47113Z"/>
</defs>
</svg>
