<svg width="17" height="22" viewBox="0 0 17 22" version="1.1" xmlns="http://www.w3.org/2000/svg" xmlns:xlink="http://www.w3.org/1999/xlink">
<title>new-file</title>
<desc>Created using Figma</desc>
<g id="Canvas" transform="translate(6420 -8376)">
<g id="new-file">
<g id="Group">
<g id="Vector">
<use xlink:href="#path0_fill" transform="translate(-6415.39 8376.6)" fill="#03A9F4"/>
</g>
<g id="Vector">
<use xlink:href="#path1_fill" transform="translate(-6419.5 8378.29)" fill="#03A9F4"/>
</g>
</g>
</g>
</g>
<defs>
<path id="path0_fill" d="M 7.92163 1.57725L 0.748175 8.7507C 0.691182 8.8077 0.650398 8.87879 0.630194 8.95681L 0.014508 11.328C -0.0257487 11.4833 0.0191068 11.6481 0.132489 11.7616C 0.21843 11.8475 0.333848 11.894 0.452281 11.894C 0.4902 11.894 0.528346 11.8893 0.565965 11.8796L 2.93719 11.2638C 3.01521 11.2435 3.08638 11.2027 3.1433 11.1458L 10.3166 3.97252C 10.3168 3.97237 10.3169 3.9723 10.317 3.97222C 10.3171 3.97214 10.3172 3.97192 10.3173 3.97184L 11.7614 2.52773C 11.9381 2.3511 11.9381 2.0647 11.7615 1.88814L 10.0061 0.13253C 9.9212 0.0476446 9.80623 0 9.68622 0C 9.56627 0 9.45123 0.0476446 9.36642 0.13253L 7.92238 1.57657C 7.92223 1.57672 7.92208 1.5768 7.92201 1.57687C 7.92193 1.57695 7.92178 1.57717 7.92163 1.57725ZM 2.59079 10.4191L 1.08357 10.8105L 1.47491 9.30329L 8.2418 2.5364L 9.3576 3.65228L 2.59079 10.4191ZM 9.68622 1.09198L 10.802 2.20786L 9.99726 3.01262L 8.88146 1.89674L 9.68622 1.09198Z"/>
<path id="path1_fill" d="M 15.5477 3.21187C 15.2979 3.21187 15.0954 3.41443 15.0954 3.66419L 15.0954 18.1998L 0.904645 18.1998L 0.904645 0.904645L 9.27736 0.904645C 9.52711 0.904645 9.72968 0.70208 9.72968 0.452322C 9.72968 0.202565 9.52711 -1.38038e-08 9.27736 -1.38038e-08L 0.452322 -1.38038e-08C 0.202565 -1.38038e-08 -1.61044e-08 0.202565 -1.61044e-08 0.452322L -1.61044e-08 18.6522C -1.61044e-08 18.9019 0.202565 19.1045 0.452322 19.1045L 15.5477 19.1045C 15.7974 19.1045 16 18.9019 16 18.6522L 16 3.66419C 16 3.41443 15.7975 3.21187 15.5477 3.21187Z"/>
</defs>
</svg>
