<svg width="36" height="26" viewBox="0 0 36 26" version="1.1" xmlns="http://www.w3.org/2000/svg" xmlns:xlink="http://www.w3.org/1999/xlink">
<title>Group 3</title>
<desc>Created using Figma</desc>
<g id="Canvas" transform="translate(509 -6237)">
<g id="Group 3">
<g id="Button 1.6">
<g id="Rectangle">
<mask id="mask0_outline_ins">
<use xlink:href="#path0_fill" fill="white" transform="translate(-509 6237.5)"/>
</mask>
<g mask="url(#mask0_outline_ins)">
<use xlink:href="#path1_stroke_2x" transform="translate(-509 6237.5)" fill="#B0BEC5"/>
</g>
</g>
</g>
<g id="leapicons-navigation_add">
<g id="add">
<g id="expanded">
<g id="&#60;Path&#62;">
<use xlink:href="#path2_fill" transform="translate(-497.218 6243.42)" fill="#03A9F4"/>
</g>
</g>
</g>
</g>
</g>
</g>
<defs>
<path id="path0_fill" d="M 0 12.5C 0 5.59644 5.59644 0 12.5 0L 23.5 0C 30.4036 0 36 5.59644 36 12.5C 36 19.4036 30.4036 25 23.5 25L 12.5 25C 5.59644 25 0 19.4036 0 12.5Z"/>
<path id="path1_stroke_2x" d="M 12.5 1L 23.5 1L 23.5 -1L 12.5 -1L 12.5 1ZM 23.5 24L 12.5 24L 12.5 26L 23.5 26L 23.5 24ZM 12.5 24C 6.14873 24 1 18.8513 1 12.5L -1 12.5C -1 19.9558 5.04416 26 12.5 26L 12.5 24ZM 35 12.5C 35 18.8513 29.8513 24 23.5 24L 23.5 26C 30.9558 26 37 19.9558 37 12.5L 35 12.5ZM 23.5 1C 29.8513 1 35 6.14873 35 12.5L 37 12.5C 37 5.04416 30.9558 -1 23.5 -1L 23.5 1ZM 12.5 -1C 5.04416 -1 -1 5.04416 -1 12.5L 1 12.5C 1 6.14873 6.14873 1 12.5 1L 12.5 -1Z"/>
<path id="path2_fill" d="M 6.54545 13.1579C 6.46279 13.1579 6.38351 13.1249 6.32506 13.0661C 6.2666 13.0074 6.23377 12.9277 6.23377 12.8446L 6.23377 6.89223L 0.311688 6.89223C 0.229023 6.89223 0.149744 6.85922 0.0912914 6.80047C 0.0328386 6.74172 0 6.66204 0 6.57895C 0 6.49586 0.0328386 6.41617 0.0912914 6.35742C 0.149744 6.29867 0.229023 6.26566 0.311688 6.26566L 6.23377 6.26566L 6.23377 0.313283C 6.23377 0.230195 6.2666 0.150511 6.32506 0.0917586C 6.38351 0.0330066 6.46279 0 6.54545 0C 6.62812 0 6.7074 0.0330066 6.76585 0.0917586C 6.8243 0.150511 6.85714 0.230195 6.85714 0.313283L 6.85714 6.26566L 12.7792 6.26566C 12.8619 6.26566 12.9412 6.29867 12.9996 6.35742C 13.0581 6.41617 13.0909 6.49586 13.0909 6.57895C 13.0909 6.66204 13.0581 6.74172 12.9996 6.80047C 12.9412 6.85922 12.8619 6.89223 12.7792 6.89223L 6.85714 6.89223L 6.85714 12.8446C 6.85714 12.9277 6.8243 13.0074 6.76585 13.0661C 6.7074 13.1249 6.62812 13.1579 6.54545 13.1579Z"/>
</defs>
</svg>
