<svg xmlns="http://www.w3.org/2000/svg" width="32" height="32" viewBox="0 0 32 32">
  <g fill="#B0BEC5" transform="translate(3 4)">
    <path d="M0.491210526,1.41214667 C0.7625,1.41214667 0.982421053,1.18798667 0.982421053,0.911473333 C0.982421053,0.634959333 0.7625,0.4108 0.491210526,0.4108 C0.219922368,0.4108 0,0.634959333 0,0.911473333 C0,1.18798667 0.219922368,1.41214667 0.491210526,1.41214667 Z" transform="translate(0 24)"/>
    <path d="M0.537405263,1.38022 C0.808151316,1.38022 1.02763816,1.15650667 1.02763816,0.880544 C1.02763816,0.60458 0.808151316,0.380866667 0.537405263,0.380866667 C0.266656579,0.380866667 0.0471710526,0.60458 0.0471710526,0.880544 C0.0471710526,1.15650667 0.266656579,1.38022 0.537405263,1.38022 Z" transform="translate(12.5 11.333)"/>
    <path d="M3.6675,1.21275067 C3.27340789,0.811018667 2.74943421,0.589846609 2.19211184,0.589846609 C1.63478947,0.589846609 1.11076316,0.811118 0.716721711,1.21275067 C-0.0968019737,2.04199333 -0.0968019737,3.39122667 0.716721711,4.22042 C1.12355921,4.63504 1.65773684,4.84228 2.19211184,4.84228 C2.72633553,4.84228 3.26076316,4.63494 3.6675,4.22042 C4.48102632,3.39117333 4.48102632,2.04194667 3.6675,1.21275067 Z M2.97428947,3.51375333 C2.54298684,3.95331333 1.84118421,3.95331333 1.40998026,3.51375333 C0.978684211,3.0742 0.978684211,2.35892 1.40998026,1.91931333 C1.61891447,1.70635333 1.89665132,1.5891 2.19211184,1.5891 C2.48756579,1.5891 2.76530263,1.70635333 2.97423684,1.91931333 C3.40553947,2.35892 3.40553947,3.0742 2.97428947,3.51375333 Z" transform="translate(15.79 4.667)"/>
    <path d="M4.80770395,1.81582667 C4.56532237,1.6928 4.27108553,1.79338 4.15038158,2.04038667 L3.56649342,3.23558 C3.31258553,3.75521333 2.80194737,4.1027 2.23368421,4.14231333 L1.55458553,4.18969333 C1.43978947,4.19750667 1.36430263,4.13922667 1.32938816,4.10364 C1.29447368,4.06806 1.23715132,3.99096667 1.24496711,3.87406 L1.29144737,3.18192667 C1.33036184,2.60276667 1.67128289,2.08224 2.18104605,1.82344 L3.35360526,1.22830667 C3.59598684,1.10528 3.69461842,0.805325333 3.57391447,0.558324 C3.45326316,0.311321933 3.15897368,0.210738 2.91659211,0.3337664 L1.74403289,0.9289 C0.924111842,1.34506667 0.375873026,2.18217333 0.313275789,3.11364667 L0.266791461,3.80577333 C0.241693816,4.17938667 0.376263816,4.54548667 0.636028947,4.81026 C0.875188816,5.05402667 1.19867763,5.18969333 1.53461184,5.18969333 C1.56346711,5.18969333 1.59251974,5.1887 1.62152632,5.18666 L2.300625,5.13928 C3.21449342,5.07552667 4.03578289,4.51677333 4.44407895,3.68096 L5.02796711,2.48581333 C5.14867105,2.23876 5.05003947,1.93885333 4.80770395,1.81582667 Z" transform="translate(1.316 18.667)"/>
    <path d="M24.6616071,0.412260667 C24.4315413,0.181284 24.1146992,0.0604956 23.7927913,0.0818463667 L23.3363439,0.111508467 C19.2436466,0.377820667 15.4133834,2.39140733 12.8277913,5.63602733 L11.7533834,6.98422733 L8.94173866,6.90002733 C8.93693603,6.899894 8.9321334,6.89982733 8.92739656,6.89982733 C6.69752814,6.89982733 4.60107419,7.78496067 3.02427156,9.392094 L0.144491954,12.3273607 C0.00752919079,12.4669607 -0.0359765987,12.6757607 0.0335545197,12.8600273 C0.103085375,13.044294 0.272518928,13.1696273 0.465975507,13.1796273 L6.56186366,13.498894 L6.31333077,13.8107607 C6.18808735,13.9680273 6.16826498,14.186694 6.26323209,14.3645607 C6.35873866,14.543494 6.45883735,14.7196273 6.56323209,14.8929607 L5.11762682,16.6421607 C4.99404787,16.791694 4.96743603,17.0010273 5.0494163,17.1778273 C5.36518603,17.857894 5.78427814,18.4689607 6.29521235,18.9940273 C6.81858077,19.5319607 7.43048866,19.9717607 8.1140413,20.301494 C8.18081761,20.3337607 8.25246235,20.3495607 8.32364656,20.3495607 C8.4340413,20.3495607 8.54351498,20.311494 8.63259393,20.237894 C8.94397551,19.9804273 9.30305445,19.6749607 9.6502913,19.3796273 C9.8977913,19.169094 10.151015,18.9537607 10.3876597,18.7551607 C10.5289755,18.8418273 10.671936,18.9258273 10.8171334,19.006294 C10.8905545,19.0470273 10.9710808,19.067094 11.0512781,19.067094 C11.1580545,19.067094 11.2641071,19.0316273 11.3518702,18.9621607 L11.686015,18.697894 L12.0005545,24.9374273 C12.0105545,25.1345607 12.1334492,25.307294 12.3141729,25.3781607 C12.3714097,25.4005607 12.4308834,25.411494 12.4899623,25.411494 C12.6176597,25.411494 12.7430545,25.3605607 12.8367387,25.265094 L15.7165413,22.3297607 C17.2933176,20.7226273 18.1616729,18.5858273 18.1616729,16.3129607 L18.1616729,13.575894 L19.2977255,12.6773607 C22.7024623,9.98436067 24.776015,5.92354067 24.9868045,1.536034 L24.9984492,1.29286733 C25.0143702,0.964194 24.8915413,0.643286667 24.6616071,0.412260667 Z M1.61734393,12.2393607 L3.71753472,10.0987607 C5.10742287,8.682094 6.95496235,7.901094 8.9202913,7.89916067 L10.9752255,7.960694 L7.32726498,12.5383607 L1.61734393,12.2393607 Z M9.0221334,18.6123607 C8.76627814,18.8299607 8.50390972,19.053094 8.26042287,19.2572273 C7.78956761,18.997294 7.36358077,18.672894 6.99127814,18.290294 C6.63075182,17.9197607 6.32387682,17.497894 6.0764163,17.0331607 L7.13483077,15.7524273 C7.45483077,16.190094 7.80509393,16.6045607 8.18351498,16.9929607 C8.18384393,16.9932273 8.18410709,16.993494 8.18443603,16.9937607 C8.18450182,16.993894 8.1846334,16.9940273 8.18469919,16.9941607 C8.18483077,16.994294 8.18502814,16.9943607 8.18515972,16.994494 C8.60476498,17.424894 9.05608077,17.819894 9.53483077,18.177094 C9.36575182,18.320094 9.19259393,18.4674273 9.0221334,18.6123607 Z M17.1814097,16.3129607 C17.1814097,18.318894 16.4150281,20.204694 15.0233834,21.6231607 L12.923186,23.7638273 L12.6300939,17.9512273 L17.1813439,14.351494 L17.1813439,16.3129607 L17.1814097,16.3129607 Z M24.0076597,1.487214 C23.8109492,5.58302067 21.8752255,9.373894 18.6968045,11.887894 L11.0083176,17.9690273 C10.3707518,17.589294 9.77647551,17.1409607 9.23259393,16.6329607 L11.8246334,13.9909607 C12.0160808,13.7958273 12.0160808,13.4794273 11.8246334,13.284294 C11.633186,13.0891607 11.3227913,13.0891607 11.1313439,13.284294 L8.54167287,15.9238273 C8.06555445,15.3865607 7.64390972,14.8019607 7.28483077,14.176694 L13.5888439,6.26604733 C16.0025281,3.23718067 19.5781202,1.357414 23.3987781,1.108874 L23.8552255,1.07920733 C23.9150281,1.07542733 23.9550281,1.10568733 23.973515,1.12420067 C23.991936,1.14266733 24.0223308,1.18282733 24.019436,1.244094 L24.0076597,1.487214 Z"/>
  </g>
</svg>
