<svg width="24" height="24" viewBox="0 0 24 24" version="1.1" xmlns="http://www.w3.org/2000/svg" xmlns:xlink="http://www.w3.org/1999/xlink">
<title>search</title>
<desc>Created using Figma</desc>
<g id="Canvas" transform="translate(911 -4326)">
<g id="search">
<g id="expanded">
<g id="&#60;Compound Path&#62;">
<use xlink:href="#path0_fill" transform="translate(-911 4326)" fill="#B0BEC5"/>
</g>
</g>
</g>
</g>
<defs>
<path id="path0_fill" d="M 22.5891 24C 22.5231 24.0004 22.4577 23.9872 22.3966 23.9613C 22.3355 23.9354 22.2799 23.8971 22.233 23.8488L 14.4235 15.7265C 12.7403 17.2847 10.539 18.0996 8.28706 17.9982C 6.03513 17.8967 3.90994 16.8869 2.36278 15.1831C 0.815619 13.4794 -0.0316449 11.2159 0.000904298 8.8733C 0.0334535 6.53074 0.943253 4.29362 2.5371 2.63701C 4.13095 0.980397 6.28331 0.034771 8.53712 0.000939988C 10.7909 -0.032891 12.9687 0.847737 14.6079 2.45582C 16.2471 4.06391 17.2187 6.27278 17.3163 8.61339C 17.4139 10.954 16.6299 13.242 15.1307 14.9915L 22.9402 23.1085C 23.0107 23.1811 23.0588 23.2738 23.0786 23.3749C 23.0983 23.4759 23.0888 23.5808 23.0512 23.6762C 23.0136 23.7716 22.9497 23.8533 22.8674 23.9109C 22.7852 23.9686 22.6883 23.9996 22.5891 24ZM 8.67042 1.06161C 7.15758 1.06161 5.67872 1.52789 4.42085 2.40147C 3.16297 3.27505 2.18258 4.51671 1.60364 5.96942C 1.0247 7.42214 0.873227 9.02067 1.16837 10.5629C 1.46351 12.1051 2.192 13.5217 3.26174 14.6335C 4.33148 15.7454 5.6944 16.5026 7.17817 16.8093C 8.66193 17.1161 10.1999 16.9586 11.5976 16.3569C 12.9953 15.7552 14.1899 14.7362 15.0304 13.4288C 15.8708 12.1214 16.3194 10.5843 16.3194 9.01185C 16.3168 6.90416 15.5101 4.88359 14.0762 3.39323C 12.6423 1.90287 10.6983 1.06437 8.67042 1.06161Z"/>
</defs>
</svg>
