<svg width="11" height="8" viewBox="0 0 11 8" version="1.1" xmlns="http://www.w3.org/2000/svg" xmlns:xlink="http://www.w3.org/1999/xlink">
<g id="Canvas" fill="none">
<g id="Vector">
<path d="M 3.87668 4.85828C 3.34824 5.36532 2.51392 5.36533 1.98548 4.85828L 1.53833 4.42924C 1.25977 4.16196 0.819973 4.16196 0.541413 4.42925C 0.246087 4.71262 0.246088 5.18486 0.541416 5.46823L 2.49426 7.342C 2.49506 7.34277 2.49633 7.34276 2.49713 7.34199C 2.49793 7.34122 2.49919 7.34122 2.49999 7.34199L 2.72677 7.55958C 2.85385 7.68152 3.05449 7.68152 3.18158 7.55958L 9.44809 1.54673C 9.74914 1.25786 9.74915 0.776458 9.4481 0.487585C 9.16413 0.215103 8.71579 0.215098 8.43181 0.487574L 3.87668 4.85828Z" transform="translate(0.59845 -0.133301)" fill="#099EE1"/>
</g>
</g>
</svg>

