<svg width="17" height="12" viewBox="0 0 17 12" version="1.1" xmlns="http://www.w3.org/2000/svg" xmlns:xlink="http://www.w3.org/1999/xlink">
<title>tick</title>
<desc>Created using Figma</desc>
<g id="Canvas" transform="translate(4705 -11237)">
<g id="tick">
<g id="expanded">
<g id="&#60;Path&#62;">
<use xlink:href="#path0_fill" transform="translate(-4704.02 11237)" fill="#FFFFFF"/>
</g>
</g>
</g>
</g>
<defs>
<path id="path0_fill" d="M 4.99484 11.3548C 4.95087 11.3551 4.90728 11.3467 4.86658 11.33C 4.82587 11.3134 4.78885 11.2888 4.75763 11.2578L 0.0803349 6.5755C 0.0256017 6.51152 -0.00299845 6.42922 0.000249313 6.34504C 0.00349708 6.26087 0.0383536 6.18102 0.0978537 6.12146C 0.157354 6.06189 0.237115 6.027 0.321198 6.02375C 0.405281 6.0205 0.487493 6.04913 0.551405 6.10392L 4.99484 10.5488L 15.4486 0.0804216C 15.5125 0.0256294 15.5947 -0.00300169 15.6788 0.000249581C 15.7629 0.00350085 15.8426 0.038395 15.9021 0.0979593C 15.9616 0.157524 15.9965 0.23737 15.9998 0.321544C 16.003 0.405718 15.9744 0.488019 15.9197 0.552001L 5.2287 11.2545C 5.16702 11.3175 5.08296 11.3536 4.99484 11.3548Z"/>
</defs>
</svg>
